# WaveFront *.obj file (generated by Cheetah3D)

mtllib button_model.mtl

g ポリゴン平面
v 0.495783 0.065110 0.000000
v 0.499732 0.016484 0.000000
v 0.500000 0.000000 0.000000
v -0.065110 0.495783 0.000000
v -0.016484 0.499732 0.000000
v 0.000000 0.500000 0.000000
v 0.065110 -0.495783 0.000000
v 0.016484 -0.499732 0.000000
v 0.000000 -0.500000 0.000000
v -0.495783 -0.065110 0.000000
v -0.499732 -0.016484 0.000000
v -0.500000 0.000000 0.000000
v -0.319378 -0.384483 0.000000
v -0.353420 -0.353420 0.000000
v -0.384483 -0.319378 0.000000
v 0.319378 0.384483 0.000000
v 0.353420 0.353420 0.000000
v 0.384483 0.319378 0.000000
v -0.384483 0.319378 0.000000
v -0.353420 0.353420 0.000000
v -0.319378 0.384483 0.000000
v 0.384483 -0.319378 0.000000
v 0.353420 -0.353420 0.000000
v 0.319378 -0.384483 0.000000
v 0.436779 -0.243254 0.000000
v 0.412344 -0.282582 0.000000
v 0.243254 0.436779 0.000000
v 0.282582 0.412344 0.000000
v -0.243254 -0.436779 0.000000
v -0.282582 -0.412344 0.000000
v -0.436779 0.243254 0.000000
v -0.412344 0.282582 0.000000
v 0.412344 0.282582 0.000000
v 0.436779 0.243254 0.000000
v -0.282582 0.412344 0.000000
v -0.243254 0.436779 0.000000
v -0.412344 -0.282582 0.000000
v -0.436779 -0.243254 0.000000
v 0.282582 -0.412344 0.000000
v 0.243254 -0.436779 0.000000
v 0.457564 0.201620 0.000000
v 0.474475 0.157902 0.000000
v -0.201620 0.457564 0.000000
v -0.157902 0.474475 0.000000
v 0.201620 -0.457564 0.000000
v 0.157902 -0.474475 0.000000
v -0.457564 -0.201620 0.000000
v -0.474475 -0.157902 0.000000
v 0.474475 -0.157902 0.000000
v 0.457564 -0.201620 0.000000
v -0.474475 0.157902 0.000000
v -0.457564 0.201620 0.000000
v -0.157902 -0.474475 0.000000
v -0.201620 -0.457564 0.000000
v 0.157902 0.474475 0.000000
v 0.201620 0.457564 0.000000
v -0.495784 0.065110 0.000000
v -0.487290 0.112324 0.000000
v 0.065110 0.495784 0.000000
v 0.112324 0.487290 0.000000
v 0.495784 -0.065110 0.000000
v 0.487290 -0.112324 0.000000
v -0.065110 -0.495784 0.000000
v -0.112324 -0.487290 0.000000
v 0.112324 -0.487290 0.000000
v -0.487290 -0.112324 0.000000
v -0.112324 0.487290 0.000000
v 0.487290 0.112324 0.000000

vt 0.000000 1.000000

vn 0.000000 0.000000 1.000000

usemtl default
f 3/1/1 2/1/1 1/1/1
f 6/1/1 5/1/1 4/1/1
f 9/1/1 8/1/1 7/1/1
f 12/1/1 11/1/1 10/1/1
f 15/1/1 14/1/1 13/1/1
f 18/1/1 17/1/1 16/1/1
f 21/1/1 20/1/1 19/1/1
f 24/1/1 23/1/1 22/1/1
f 22/1/1 26/1/1 25/1/1
f 16/1/1 28/1/1 27/1/1
f 13/1/1 30/1/1 29/1/1
f 19/1/1 32/1/1 31/1/1
f 34/1/1 33/1/1 18/1/1
f 36/1/1 35/1/1 21/1/1
f 38/1/1 37/1/1 15/1/1
f 40/1/1 39/1/1 24/1/1
f 42/1/1 41/1/1 34/1/1
f 44/1/1 43/1/1 36/1/1
f 46/1/1 45/1/1 40/1/1
f 48/1/1 47/1/1 38/1/1
f 25/1/1 50/1/1 49/1/1
f 31/1/1 52/1/1 51/1/1
f 29/1/1 54/1/1 53/1/1
f 27/1/1 56/1/1 55/1/1
f 51/1/1 58/1/1 57/1/1
f 55/1/1 60/1/1 59/1/1
f 49/1/1 62/1/1 61/1/1
f 53/1/1 64/1/1 63/1/1
f 7/1/1 65/1/1 46/1/1
f 10/1/1 66/1/1 48/1/1
f 4/1/1 67/1/1 44/1/1
f 1/1/1 68/1/1 42/1/1
f 61/1/1 3/1/1 1/1/1
f 57/1/1 12/1/1 10/1/1
f 63/1/1 9/1/1 7/1/1
f 59/1/1 6/1/1 4/1/1
f 40/1/1 24/1/1 22/1/1
f 38/1/1 15/1/1 13/1/1
f 36/1/1 21/1/1 19/1/1
f 34/1/1 18/1/1 16/1/1
f 16/1/1 27/1/1 55/1/1
f 19/1/1 31/1/1 51/1/1
f 13/1/1 29/1/1 53/1/1
f 22/1/1 25/1/1 49/1/1
f 4/1/1 44/1/1 36/1/1
f 10/1/1 48/1/1 38/1/1
f 7/1/1 46/1/1 40/1/1
f 1/1/1 42/1/1 34/1/1
f 49/1/1 61/1/1 1/1/1
f 51/1/1 57/1/1 10/1/1
f 53/1/1 63/1/1 7/1/1
f 55/1/1 59/1/1 4/1/1
f 40/1/1 22/1/1 49/1/1
f 36/1/1 19/1/1 51/1/1
f 34/1/1 16/1/1 55/1/1
f 38/1/1 13/1/1 53/1/1
f 49/1/1 1/1/1 34/1/1
f 55/1/1 4/1/1 36/1/1
f 51/1/1 10/1/1 38/1/1
f 53/1/1 7/1/1 40/1/1
f 40/1/1 49/1/1 34/1/1
f 53/1/1 40/1/1 34/1/1
f 38/1/1 53/1/1 34/1/1
f 51/1/1 38/1/1 34/1/1
f 36/1/1 51/1/1 34/1/1
f 36/1/1 34/1/1 55/1/1

