# WaveFront *.obj file (generated by Cheetah3D)

mtllib cube_text.mtl

g 立方体
v -0.600000 -0.447000 0.372500
v -0.600000 -0.447000 0.436250
v -0.580875 -0.447000 0.484062
v -0.523500 -0.447000 0.500000
v -0.447000 -0.447000 0.500000
v -0.447000 0.447000 0.500000
v -0.523500 0.447000 0.500000
v -0.580875 0.447000 0.484062
v -0.600000 0.447000 0.436250
v -0.600000 0.447000 0.372500
v -0.447000 0.600000 0.372500
v -0.447000 0.600000 0.436250
v -0.447000 0.580875 0.484062
v -0.447000 0.523500 0.500000
v 0.447000 0.447000 0.500000
v 0.447000 0.523500 0.500000
v 0.447000 0.580875 0.484062
v 0.447000 0.600000 0.436250
v 0.447000 0.600000 0.372500
v 0.600000 0.447000 0.372500
v 0.600000 0.447000 0.436250
v 0.580875 0.447000 0.484062
v 0.523500 0.447000 0.500000
v 0.447000 -0.447000 0.500000
v 0.523500 -0.447000 0.500000
v 0.580875 -0.447000 0.484062
v 0.600000 -0.447000 0.436250
v 0.600000 -0.447000 0.372500
v -0.447000 -0.523500 0.500000
v -0.447000 -0.580875 0.484062
v -0.447000 -0.600000 0.436250
v -0.447000 -0.600000 0.372500
v 0.447000 -0.600000 0.372500
v 0.447000 -0.600000 0.436250
v 0.447000 -0.580875 0.484062
v 0.447000 -0.523500 0.500000
v 0.600000 -0.447000 -0.372500
v 0.600000 -0.447000 -0.436250
v 0.580875 -0.447000 -0.484062
v 0.523500 -0.447000 -0.500000
v 0.447000 -0.447000 -0.500000
v 0.447000 0.447000 -0.500000
v 0.523500 0.447000 -0.500000
v 0.580875 0.447000 -0.484062
v 0.600000 0.447000 -0.436250
v 0.600000 0.447000 -0.372500
v 0.447000 0.600000 -0.372500
v 0.447000 0.600000 -0.436250
v 0.447000 0.580875 -0.484062
v 0.447000 0.523500 -0.500000
v -0.447000 0.447000 -0.500000
v -0.447000 0.523500 -0.500000
v -0.447000 0.580875 -0.484062
v -0.447000 0.600000 -0.436250
v -0.447000 0.600000 -0.372500
v -0.600000 0.447000 -0.372500
v -0.600000 0.447000 -0.436250
v -0.580875 0.447000 -0.484062
v -0.523500 0.447000 -0.500000
v -0.447000 -0.447000 -0.500000
v -0.523500 -0.447000 -0.500000
v -0.580875 -0.447000 -0.484062
v -0.600000 -0.447000 -0.436250
v -0.600000 -0.447000 -0.372500
v 0.447000 -0.523500 -0.500000
v 0.447000 -0.580875 -0.484062
v 0.447000 -0.600000 -0.436250
v 0.447000 -0.600000 -0.372500
v -0.447000 -0.600000 -0.372500
v -0.447000 -0.600000 -0.436250
v -0.447000 -0.580875 -0.484062
v -0.447000 -0.523500 -0.500000
v -0.600000 0.523500 0.372500
v -0.580875 0.580875 0.372500
v -0.523500 0.600000 0.372500
v -0.523500 0.600000 -0.372500
v -0.580875 0.580875 -0.372500
v -0.600000 0.523500 -0.372500
v -0.523500 -0.600000 0.372500
v -0.580875 -0.580875 0.372500
v -0.600000 -0.523500 0.372500
v -0.600000 -0.523500 -0.372500
v -0.580875 -0.580875 -0.372500
v -0.523500 -0.600000 -0.372500
v 0.523500 0.600000 0.372500
v 0.580875 0.580875 0.372500
v 0.600000 0.523500 0.372500
v 0.600000 0.523500 -0.372500
v 0.580875 0.580875 -0.372500
v 0.523500 0.600000 -0.372500
v 0.600000 -0.523500 0.372500
v 0.580875 -0.580875 0.372500
v 0.523500 -0.600000 0.372500
v 0.523500 -0.600000 -0.372500
v 0.580875 -0.580875 -0.372500
v 0.600000 -0.523500 -0.372500
v -0.566000 -0.566000 0.471667
v -0.580875 -0.523500 0.484062
v -0.580875 -0.580875 0.436250
v -0.600000 -0.523500 0.436250
v -0.523500 -0.580875 0.484062
v -0.523500 -0.523500 0.500000
v -0.523500 -0.600000 0.436250
v -0.566000 0.566000 0.471667
v -0.580875 0.523500 0.484062
v -0.523500 0.580875 0.484062
v -0.523500 0.523500 0.500000
v -0.580875 0.580875 0.436250
v -0.600000 0.523500 0.436250
v -0.523500 0.600000 0.436250
v 0.566000 0.566000 0.471667
v 0.523500 0.580875 0.484062
v 0.580875 0.523500 0.484062
v 0.523500 0.523500 0.500000
v 0.580875 0.580875 0.436250
v 0.523500 0.600000 0.436250
v 0.600000 0.523500 0.436250
v 0.566000 -0.566000 0.471667
v 0.580875 -0.523500 0.484062
v 0.523500 -0.580875 0.484062
v 0.523500 -0.523500 0.500000
v 0.580875 -0.580875 0.436250
v 0.600000 -0.523500 0.436250
v 0.523500 -0.600000 0.436250
v 0.566000 -0.566000 -0.471667
v 0.580875 -0.523500 -0.484062
v 0.580875 -0.580875 -0.436250
v 0.600000 -0.523500 -0.436250
v 0.523500 -0.580875 -0.484062
v 0.523500 -0.523500 -0.500000
v 0.523500 -0.600000 -0.436250
v 0.566000 0.566000 -0.471667
v 0.580875 0.523500 -0.484062
v 0.523500 0.580875 -0.484062
v 0.523500 0.523500 -0.500000
v 0.580875 0.580875 -0.436250
v 0.600000 0.523500 -0.436250
v 0.523500 0.600000 -0.436250
v -0.566000 0.566000 -0.471667
v -0.523500 0.580875 -0.484062
v -0.580875 0.523500 -0.484062
v -0.523500 0.523500 -0.500000
v -0.580875 0.580875 -0.436250
v -0.523500 0.600000 -0.436250
v -0.600000 0.523500 -0.436250
v -0.566000 -0.566000 -0.471667
v -0.580875 -0.523500 -0.484062
v -0.523500 -0.580875 -0.484062
v -0.523500 -0.523500 -0.500000
v -0.580875 -0.580875 -0.436250
v -0.600000 -0.523500 -0.436250
v -0.523500 -0.600000 -0.436250

vt 0.995422 0.004575
vt 0.995422 0.995429
vt 0.004573 0.995429
vt 0.004573 0.004575

vn 0.000000 0.000000 -1.000000
vn 0.000000 0.000000 1.000000

usemtl Material
f 60/4/1 51/3/1 42/2/1 41/1/1
f 24/2/2 15/1/2 6/4/2 5/3/2

usemtl default

