# WaveFront *.obj file (generated by Cheetah3D)

mtllib cube_font.mtl

g 立方体
v -0.500000 -0.432500 0.432500
v -0.500000 -0.432500 0.466250
v -0.491562 -0.432500 0.491562
v -0.466250 -0.432500 0.500000
v -0.432500 -0.432500 0.500000
v -0.432500 0.432500 0.500000
v -0.466250 0.432500 0.500000
v -0.491562 0.432500 0.491562
v -0.500000 0.432500 0.466250
v -0.500000 0.432500 0.432500
v -0.432500 0.500000 0.432500
v -0.432500 0.500000 0.466250
v -0.432500 0.491562 0.491562
v -0.432500 0.466250 0.500000
v 0.432500 0.432500 0.500000
v 0.432500 0.466250 0.500000
v 0.432500 0.491562 0.491562
v 0.432500 0.500000 0.466250
v 0.432500 0.500000 0.432500
v 0.500000 0.432500 0.432500
v 0.500000 0.432500 0.466250
v 0.491562 0.432500 0.491562
v 0.466250 0.432500 0.500000
v 0.432500 -0.432500 0.500000
v 0.466250 -0.432500 0.500000
v 0.491562 -0.432500 0.491562
v 0.500000 -0.432500 0.466250
v 0.500000 -0.432500 0.432500
v -0.432500 -0.466250 0.500000
v -0.432500 -0.491562 0.491562
v -0.432500 -0.500000 0.466250
v -0.432500 -0.500000 0.432500
v 0.432500 -0.500000 0.432500
v 0.432500 -0.500000 0.466250
v 0.432500 -0.491562 0.491562
v 0.432500 -0.466250 0.500000
v 0.500000 -0.432500 -0.432500
v 0.500000 -0.432500 -0.466250
v 0.491562 -0.432500 -0.491562
v 0.466250 -0.432500 -0.500000
v 0.432500 -0.432500 -0.500000
v 0.432500 0.432500 -0.500000
v 0.466250 0.432500 -0.500000
v 0.491562 0.432500 -0.491562
v 0.500000 0.432500 -0.466250
v 0.500000 0.432500 -0.432500
v 0.432500 0.500000 -0.432500
v 0.432500 0.500000 -0.466250
v 0.432500 0.491562 -0.491562
v 0.432500 0.466250 -0.500000
v -0.432500 0.432500 -0.500000
v -0.432500 0.466250 -0.500000
v -0.432500 0.491562 -0.491562
v -0.432500 0.500000 -0.466250
v -0.432500 0.500000 -0.432500
v -0.500000 0.432500 -0.432500
v -0.500000 0.432500 -0.466250
v -0.491562 0.432500 -0.491562
v -0.466250 0.432500 -0.500000
v -0.432500 -0.432500 -0.500000
v -0.466250 -0.432500 -0.500000
v -0.491562 -0.432500 -0.491562
v -0.500000 -0.432500 -0.466250
v -0.500000 -0.432500 -0.432500
v 0.432500 -0.466250 -0.500000
v 0.432500 -0.491562 -0.491562
v 0.432500 -0.500000 -0.466250
v 0.432500 -0.500000 -0.432500
v -0.432500 -0.500000 -0.432500
v -0.432500 -0.500000 -0.466250
v -0.432500 -0.491562 -0.491562
v -0.432500 -0.466250 -0.500000
v -0.500000 0.466250 0.432500
v -0.491562 0.491562 0.432500
v -0.466250 0.500000 0.432500
v -0.466250 0.500000 -0.432500
v -0.491562 0.491562 -0.432500
v -0.500000 0.466250 -0.432500
v -0.466250 -0.500000 0.432500
v -0.491562 -0.491562 0.432500
v -0.500000 -0.466250 0.432500
v -0.500000 -0.466250 -0.432500
v -0.491562 -0.491562 -0.432500
v -0.466250 -0.500000 -0.432500
v 0.466250 0.500000 0.432500
v 0.491562 0.491562 0.432500
v 0.500000 0.466250 0.432500
v 0.500000 0.466250 -0.432500
v 0.491562 0.491562 -0.432500
v 0.466250 0.500000 -0.432500
v 0.500000 -0.466250 0.432500
v 0.491562 -0.491562 0.432500
v 0.466250 -0.500000 0.432500
v 0.466250 -0.500000 -0.432500
v 0.491562 -0.491562 -0.432500
v 0.500000 -0.466250 -0.432500
v -0.485000 -0.485000 0.485000
v -0.491562 -0.466250 0.491562
v -0.491562 -0.491562 0.466250
v -0.500000 -0.466250 0.466250
v -0.466250 -0.491562 0.491562
v -0.466250 -0.466250 0.500000
v -0.466250 -0.500000 0.466250
v -0.485000 0.485000 0.485000
v -0.491562 0.466250 0.491562
v -0.466250 0.491562 0.491562
v -0.466250 0.466250 0.500000
v -0.491562 0.491562 0.466250
v -0.500000 0.466250 0.466250
v -0.466250 0.500000 0.466250
v 0.485000 0.485000 0.485000
v 0.466250 0.491562 0.491562
v 0.491562 0.466250 0.491562
v 0.466250 0.466250 0.500000
v 0.491562 0.491562 0.466250
v 0.466250 0.500000 0.466250
v 0.500000 0.466250 0.466250
v 0.485000 -0.485000 0.485000
v 0.491562 -0.466250 0.491562
v 0.466250 -0.491562 0.491562
v 0.466250 -0.466250 0.500000
v 0.491562 -0.491562 0.466250
v 0.500000 -0.466250 0.466250
v 0.466250 -0.500000 0.466250
v 0.485000 -0.485000 -0.485000
v 0.491562 -0.466250 -0.491562
v 0.491562 -0.491562 -0.466250
v 0.500000 -0.466250 -0.466250
v 0.466250 -0.491562 -0.491562
v 0.466250 -0.466250 -0.500000
v 0.466250 -0.500000 -0.466250
v 0.485000 0.485000 -0.485000
v 0.491562 0.466250 -0.491562
v 0.466250 0.491562 -0.491562
v 0.466250 0.466250 -0.500000
v 0.491562 0.491562 -0.466250
v 0.500000 0.466250 -0.466250
v 0.466250 0.500000 -0.466250
v -0.485000 0.485000 -0.485000
v -0.466250 0.491562 -0.491562
v -0.491562 0.466250 -0.491562
v -0.466250 0.466250 -0.500000
v -0.491562 0.491562 -0.466250
v -0.466250 0.500000 -0.466250
v -0.500000 0.466250 -0.466250
v -0.485000 -0.485000 -0.485000
v -0.491562 -0.466250 -0.491562
v -0.466250 -0.491562 -0.491562
v -0.466250 -0.466250 -0.500000
v -0.491562 -0.491562 -0.466250
v -0.500000 -0.466250 -0.466250
v -0.466250 -0.500000 -0.466250

vt 0.000000 1.000000
vt 0.067500 0.067500
vt 0.067500 0.932500
vt 0.932500 0.932500
vt 0.932500 0.067500

vn 0.000000 0.000000 1.000000
vn -0.160182 0.000000 0.987087
vn -0.316228 0.000000 0.948683
vn -0.948683 -0.000000 0.316228
vn -0.987087 -0.000000 0.160182
vn -1.000000 0.000000 0.000000
vn -0.000000 0.160182 0.987087
vn -0.000000 0.316228 0.948683
vn 0.000000 0.948683 0.316228
vn 0.000000 0.987087 0.160182
vn 0.000000 1.000000 0.000000
vn 0.160182 0.000000 0.987087
vn 0.316228 0.000000 0.948683
vn 0.948683 0.000000 0.316228
vn 0.987087 0.000000 0.160182
vn 1.000000 0.000000 0.000000
vn 0.000000 -1.000000 0.000000
vn 0.000000 -0.987087 0.160182
vn 0.000000 -0.948683 0.316228
vn -0.000000 -0.316228 0.948683
vn -0.000000 -0.160182 0.987087
vn 0.000000 -0.160182 0.987087
vn 0.000000 -0.316228 0.948683
vn 0.000000 0.000000 -1.000000
vn 0.160182 0.000000 -0.987087
vn 0.316228 0.000000 -0.948683
vn 0.948683 -0.000000 -0.316228
vn 0.987087 -0.000000 -0.160182
vn 0.000000 0.160182 -0.987087
vn -0.000000 0.160182 -0.987087
vn 0.000000 0.316228 -0.948683
vn -0.000000 0.316228 -0.948683
vn 0.000000 0.948683 -0.316228
vn 0.000000 0.987087 -0.160182
vn -0.160182 0.000000 -0.987087
vn -0.316228 0.000000 -0.948683
vn -0.948683 0.000000 -0.316228
vn -0.987087 0.000000 -0.160182
vn 0.000000 -0.987087 -0.160182
vn 0.000000 -0.948683 -0.316228
vn 0.000000 -0.316228 -0.948683
vn 0.000000 -0.160182 -0.987087
vn -0.000000 -0.160182 -0.987087
vn -0.000000 -0.316228 -0.948683
vn -0.160182 0.987087 0.000000
vn -0.316228 0.948683 0.000000
vn -0.948683 0.316228 0.000000
vn -0.987087 0.160182 0.000000
vn -0.987087 -0.160182 0.000000
vn -0.948683 -0.316228 0.000000
vn -0.316228 -0.948683 0.000000
vn -0.160182 -0.987087 0.000000
vn 0.987087 0.160182 0.000000
vn 0.948683 0.316228 0.000000
vn 0.316228 0.948683 0.000000
vn 0.160182 0.987087 0.000000
vn 0.160182 -0.987087 0.000000
vn 0.316228 -0.948683 0.000000
vn 0.948683 -0.316228 0.000000
vn 0.987087 -0.160182 0.000000
vn -0.924490 -0.337654 0.176940
vn -0.970285 -0.171095 0.171094
vn -0.337654 -0.176940 0.924490
vn -0.171095 -0.171094 0.970285
vn -0.176940 -0.924490 0.337654
vn -0.171094 -0.970285 0.171095
vn -0.924490 -0.176940 0.337653
vn -0.789402 -0.253628 0.559033
vn -0.577350 -0.577350 0.577350
vn -0.789402 -0.559033 0.253628
vn -0.176940 -0.337653 0.924490
vn -0.253628 -0.559033 0.789402
vn -0.559033 -0.253628 0.789402
vn -0.337653 -0.924490 0.176940
vn -0.559033 -0.789402 0.253628
vn -0.253628 -0.789402 0.559033
vn -0.176940 0.337653 0.924490
vn -0.171095 0.171094 0.970285
vn -0.924490 0.176940 0.337653
vn -0.948683 0.000000 0.316228
vn -0.987087 0.000000 0.160182
vn -0.970285 0.171095 0.171094
vn -0.337653 0.924490 0.176940
vn -0.171094 0.970285 0.171095
vn -0.337654 0.176940 0.924490
vn -0.559033 0.253628 0.789402
vn -0.577350 0.577350 0.577350
vn -0.253628 0.559033 0.789402
vn -0.924490 0.337654 0.176940
vn -0.789402 0.559033 0.253628
vn -0.789402 0.253628 0.559033
vn -0.176940 0.924490 0.337654
vn -0.253628 0.789402 0.559033
vn -0.559033 0.789402 0.253628
vn 0.337654 0.176940 0.924490
vn 0.171095 0.171094 0.970285
vn 0.176940 0.924490 0.337654
vn 0.171094 0.970285 0.171095
vn 0.924490 0.337654 0.176940
vn 0.970285 0.171095 0.171094
vn 0.000000 0.160182 0.987087
vn 0.000000 0.316228 0.948683
vn 0.176940 0.337653 0.924490
vn 0.253628 0.559033 0.789402
vn 0.577350 0.577350 0.577350
vn 0.559033 0.253628 0.789402
vn 0.337653 0.924490 0.176940
vn 0.559033 0.789402 0.253628
vn 0.253628 0.789402 0.559033
vn 0.924490 0.176940 0.337653
vn 0.789402 0.253628 0.559033
vn 0.789402 0.559033 0.253628
vn 0.176940 -0.337653 0.924490
vn 0.171095 -0.171094 0.970285
vn 0.924490 -0.176940 0.337653
vn 0.948683 -0.000000 0.316228
vn 0.987087 -0.000000 0.160182
vn 0.970285 -0.171095 0.171094
vn 0.337653 -0.924490 0.176940
vn 0.171094 -0.970285 0.171095
vn 0.337654 -0.176940 0.924490
vn 0.559033 -0.253628 0.789402
vn 0.577350 -0.577350 0.577350
vn 0.253628 -0.559033 0.789402
vn 0.924490 -0.337654 0.176940
vn 0.789402 -0.559033 0.253628
vn 0.789402 -0.253628 0.559033
vn 0.176940 -0.924490 0.337654
vn 0.253628 -0.789402 0.559033
vn 0.559033 -0.789402 0.253628
vn 0.924490 -0.337654 -0.176940
vn 0.970285 -0.171095 -0.171094
vn 0.337654 -0.176940 -0.924490
vn 0.171095 -0.171094 -0.970285
vn 0.176940 -0.924490 -0.337654
vn 0.171094 -0.970285 -0.171095
vn 0.924490 -0.176940 -0.337653
vn 0.789402 -0.253628 -0.559033
vn 0.577350 -0.577350 -0.577350
vn 0.789402 -0.559033 -0.253628
vn 0.176940 -0.337653 -0.924490
vn 0.253628 -0.559033 -0.789402
vn 0.559033 -0.253628 -0.789402
vn 0.160182 -0.987087 -0.000000
vn 0.316228 -0.948683 -0.000000
vn 0.337653 -0.924490 -0.176940
vn 0.559033 -0.789402 -0.253628
vn 0.253628 -0.789402 -0.559033
vn 0.176940 0.337653 -0.924490
vn 0.171095 0.171094 -0.970285
vn 0.924490 0.176940 -0.337653
vn 0.948683 0.000000 -0.316228
vn 0.987087 0.000000 -0.160182
vn 0.970285 0.171095 -0.171094
vn 0.337653 0.924490 -0.176940
vn 0.316228 0.948683 -0.000000
vn 0.160182 0.987087 -0.000000
vn 0.171094 0.970285 -0.171095
vn 0.337654 0.176940 -0.924490
vn 0.559033 0.253628 -0.789402
vn 0.577350 0.577350 -0.577350
vn 0.253628 0.559033 -0.789402
vn 0.924490 0.337654 -0.176940
vn 0.789402 0.559033 -0.253628
vn 0.789402 0.253628 -0.559033
vn 0.176940 0.924490 -0.337654
vn 0.253628 0.789402 -0.559033
vn 0.559033 0.789402 -0.253628
vn -0.337654 0.176940 -0.924490
vn -0.171095 0.171094 -0.970285
vn -0.176940 0.924490 -0.337654
vn -0.171094 0.970285 -0.171095
vn -0.924490 0.337654 -0.176940
vn -0.970285 0.171095 -0.171094
vn -0.176940 0.337653 -0.924490
vn -0.253628 0.559033 -0.789402
vn -0.577350 0.577350 -0.577350
vn -0.559033 0.253628 -0.789402
vn -0.160182 0.987087 -0.000000
vn -0.316228 0.948683 -0.000000
vn -0.337653 0.924490 -0.176940
vn -0.559033 0.789402 -0.253628
vn -0.253628 0.789402 -0.559033
vn -0.924490 0.176940 -0.337653
vn -0.789402 0.253628 -0.559033
vn -0.789402 0.559033 -0.253628
vn -0.176940 -0.337653 -0.924490
vn -0.171095 -0.171094 -0.970285
vn -0.924490 -0.176940 -0.337653
vn -0.948683 -0.000000 -0.316228
vn -0.987087 -0.000000 -0.160182
vn -0.970285 -0.171095 -0.171094
vn -0.337653 -0.924490 -0.176940
vn -0.316228 -0.948683 -0.000000
vn -0.160182 -0.987087 -0.000000
vn -0.171094 -0.970285 -0.171095
vn -0.337654 -0.176940 -0.924490
vn -0.559033 -0.253628 -0.789402
vn -0.577350 -0.577350 -0.577350
vn -0.253628 -0.559033 -0.789402
vn -0.924490 -0.337654 -0.176940
vn -0.789402 -0.559033 -0.253628
vn -0.789402 -0.253628 -0.559033
vn -0.176940 -0.924490 -0.337654
vn -0.253628 -0.789402 -0.559033
vn -0.559033 -0.789402 -0.253628

usemtl default
f 6/1/1 7/1/2 4/1/2 5/1/1
f 7/1/2 8/1/3 3/1/3 4/1/2
f 8/1/4 9/1/5 2/1/5 3/1/4
f 9/1/5 10/1/6 1/1/6 2/1/5
f 15/1/1 16/1/7 14/1/7 6/1/1
f 16/1/7 17/1/8 13/1/8 14/1/7
f 17/1/9 18/1/10 12/1/10 13/1/9
f 18/1/10 19/1/11 11/1/11 12/1/10
f 24/1/1 25/1/12 23/1/12 15/1/1
f 25/1/12 26/1/13 22/1/13 23/1/12
f 26/1/14 27/1/15 21/1/15 22/1/14
f 27/1/15 28/1/16 20/1/16 21/1/15
f 33/1/17 34/1/18 31/1/18 32/1/17
f 34/1/18 35/1/19 30/1/19 31/1/18
f 35/1/23 36/1/22 29/1/21 30/1/20
f 36/1/22 24/1/1 5/1/1 29/1/21
f 42/1/24 43/1/25 40/1/25 41/1/24
f 43/1/25 44/1/26 39/1/26 40/1/25
f 44/1/27 45/1/28 38/1/28 39/1/27
f 45/1/28 46/1/16 37/1/16 38/1/28
f 51/1/24 52/1/30 50/1/29 42/1/24
f 52/1/30 53/1/32 49/1/31 50/1/29
f 53/1/33 54/1/34 48/1/34 49/1/33
f 54/1/34 55/1/11 47/1/11 48/1/34
f 60/1/24 61/1/35 59/1/35 51/1/24
f 61/1/35 62/1/36 58/1/36 59/1/35
f 62/1/37 63/1/38 57/1/38 58/1/37
f 63/1/38 64/1/6 56/1/6 57/1/38
f 69/1/17 70/1/39 67/1/39 68/1/17
f 70/1/39 71/1/40 66/1/40 67/1/39
f 71/1/44 72/1/43 65/1/42 66/1/41
f 72/1/43 60/1/24 41/1/24 65/1/42
f 55/1/11 76/1/45 75/1/45 11/1/11
f 76/1/45 77/1/46 74/1/46 75/1/45
f 77/1/47 78/1/48 73/1/48 74/1/47
f 78/1/48 56/1/6 10/1/6 73/1/48
f 64/1/6 82/1/49 81/1/49 1/1/6
f 82/1/49 83/1/50 80/1/50 81/1/49
f 83/1/51 84/1/52 79/1/52 80/1/51
f 84/1/52 69/1/17 32/1/17 79/1/52
f 46/1/16 88/1/53 87/1/53 20/1/16
f 88/1/53 89/1/54 86/1/54 87/1/53
f 89/1/55 90/1/56 85/1/56 86/1/55
f 90/1/56 47/1/11 19/1/11 85/1/56
f 68/1/17 94/1/57 93/1/57 33/1/17
f 94/1/57 95/1/58 92/1/58 93/1/57
f 95/1/59 96/1/60 91/1/60 92/1/59
f 96/1/60 37/1/16 28/1/16 91/1/60
f 100/1/62 81/1/49 80/1/50 99/1/61
f 102/1/64 4/1/2 3/1/3 98/1/63
f 103/1/66 31/1/18 30/1/19 101/1/65
f 81/1/49 100/1/62 2/1/5 1/1/6
f 100/1/62 98/1/67 3/1/4 2/1/5
f 100/1/62 99/1/70 97/1/69 98/1/68
f 4/1/2 102/1/64 29/1/21 5/1/1
f 102/1/64 101/1/71 30/1/20 29/1/21
f 102/1/64 98/1/73 97/1/69 101/1/72
f 31/1/18 103/1/66 79/1/52 32/1/17
f 103/1/66 99/1/74 80/1/51 79/1/52
f 103/1/66 101/1/76 97/1/69 99/1/75
f 107/1/78 14/1/7 13/1/8 106/1/77
f 109/1/82 9/1/81 8/1/80 105/1/79
f 110/1/84 75/1/45 74/1/46 108/1/83
f 14/1/7 107/1/78 7/1/2 6/1/1
f 107/1/78 105/1/85 8/1/3 7/1/2
f 107/1/78 106/1/88 104/1/87 105/1/86
f 9/1/81 109/1/82 73/1/48 10/1/6
f 109/1/82 108/1/89 74/1/47 73/1/48
f 109/1/82 105/1/91 104/1/87 108/1/90
f 75/1/45 110/1/84 12/1/10 11/1/11
f 110/1/84 106/1/92 13/1/9 12/1/10
f 110/1/84 108/1/94 104/1/87 106/1/93
f 114/1/96 23/1/12 22/1/13 113/1/95
f 116/1/98 18/1/10 17/1/9 112/1/97
f 117/1/100 87/1/53 86/1/54 115/1/99
f 23/1/12 114/1/96 16/1/101 15/1/1
f 114/1/96 112/1/103 17/1/102 16/1/101
f 114/1/96 113/1/106 111/1/105 112/1/104
f 18/1/10 116/1/98 85/1/56 19/1/11
f 116/1/98 115/1/107 86/1/55 85/1/56
f 116/1/98 112/1/109 111/1/105 115/1/108
f 87/1/53 117/1/100 21/1/15 20/1/16
f 117/1/100 113/1/110 22/1/14 21/1/15
f 117/1/100 115/1/112 111/1/105 113/1/111
f 121/1/114 36/1/22 35/1/23 120/1/113
f 123/1/118 27/1/117 26/1/116 119/1/115
f 124/1/120 93/1/57 92/1/58 122/1/119
f 36/1/22 121/1/114 25/1/12 24/1/1
f 121/1/114 119/1/121 26/1/13 25/1/12
f 121/1/114 120/1/124 118/1/123 119/1/122
f 27/1/117 123/1/118 91/1/60 28/1/16
f 123/1/118 122/1/125 92/1/59 91/1/60
f 123/1/118 119/1/127 118/1/123 122/1/126
f 93/1/57 124/1/120 34/1/18 33/1/17
f 124/1/120 120/1/128 35/1/19 34/1/18
f 124/1/120 122/1/130 118/1/123 120/1/129
f 128/1/132 96/1/60 95/1/59 127/1/131
f 130/1/134 40/1/25 39/1/26 126/1/133
f 131/1/136 67/1/39 66/1/40 129/1/135
f 96/1/60 128/1/132 38/1/28 37/1/16
f 128/1/132 126/1/137 39/1/27 38/1/28
f 128/1/132 127/1/140 125/1/139 126/1/138
f 40/1/25 130/1/134 65/1/42 41/1/24
f 130/1/134 129/1/141 66/1/41 65/1/42
f 130/1/134 126/1/143 125/1/139 129/1/142
f 67/1/39 131/1/136 94/1/144 68/1/17
f 131/1/136 127/1/146 95/1/145 94/1/144
f 131/1/136 129/1/148 125/1/139 127/1/147
f 135/1/150 50/1/29 49/1/31 134/1/149
f 137/1/154 45/1/153 44/1/152 133/1/151
f 138/1/158 90/1/157 89/1/156 136/1/155
f 50/1/29 135/1/150 43/1/25 42/1/24
f 135/1/150 133/1/159 44/1/26 43/1/25
f 135/1/150 134/1/162 132/1/161 133/1/160
f 45/1/153 137/1/154 88/1/53 46/1/16
f 137/1/154 136/1/163 89/1/54 88/1/53
f 137/1/154 133/1/165 132/1/161 136/1/164
f 90/1/157 138/1/158 48/1/34 47/1/11
f 138/1/158 134/1/166 49/1/33 48/1/34
f 138/1/158 136/1/168 132/1/161 134/1/167
f 142/1/170 59/1/35 58/1/36 141/1/169
f 144/1/172 54/1/34 53/1/33 140/1/171
f 145/1/174 78/1/48 77/1/47 143/1/173
f 59/1/35 142/1/170 52/1/30 51/1/24
f 142/1/170 140/1/175 53/1/32 52/1/30
f 142/1/170 141/1/178 139/1/177 140/1/176
f 54/1/34 144/1/172 76/1/179 55/1/11
f 144/1/172 143/1/181 77/1/180 76/1/179
f 144/1/172 140/1/183 139/1/177 143/1/182
f 78/1/48 145/1/174 57/1/38 56/1/6
f 145/1/174 141/1/184 58/1/37 57/1/38
f 145/1/174 143/1/186 139/1/177 141/1/185
f 149/1/188 72/1/43 71/1/44 148/1/187
f 151/1/192 63/1/191 62/1/190 147/1/189
f 152/1/196 84/1/195 83/1/194 150/1/193
f 72/1/43 149/1/188 61/1/35 60/1/24
f 149/1/188 147/1/197 62/1/36 61/1/35
f 149/1/188 148/1/200 146/1/199 147/1/198
f 63/1/191 151/1/192 82/1/49 64/1/6
f 151/1/192 150/1/201 83/1/50 82/1/49
f 151/1/192 147/1/203 146/1/199 150/1/202
f 84/1/195 152/1/196 70/1/39 69/1/17
f 152/1/196 148/1/204 71/1/40 70/1/39
f 152/1/196 150/1/206 146/1/199 148/1/205
f 24/5/1 15/4/1 6/3/1 5/2/1
f 60/5/24 51/4/24 42/3/24 41/2/24
f 1/5/6 10/4/6 56/3/6 64/2/6
f 37/5/16 46/4/16 20/3/16 28/2/16
f 19/5/11 47/4/11 55/3/11 11/2/11
f 68/5/17 33/4/17 32/3/17 69/2/17

