# WaveFront *.obj file (generated by Cheetah3D)

mtllib item_cube.mtl

g 立方体
v -0.233750 -0.233750 0.250000
v -0.245240 -0.237115 0.245240
v -0.245240 -0.083333 0.245240
v -0.233750 -0.083333 0.250000
v -0.250000 -0.233750 0.233750
v -0.250000 -0.083333 0.233750
v -0.233750 -0.250000 0.233750
v -0.237115 -0.245240 0.245240
v -0.083333 -0.245240 0.245240
v -0.083333 -0.250000 0.233750
v -0.083333 -0.233750 0.250000
v -0.245240 0.083333 0.245240
v -0.233750 0.083333 0.250000
v -0.250000 0.083333 0.233750
v -0.245240 0.237115 0.245240
v -0.233750 0.233750 0.250000
v -0.250000 0.233750 0.233750
v -0.237115 0.245240 0.245240
v -0.083333 0.245240 0.245240
v -0.083333 0.233750 0.250000
v -0.233750 0.250000 0.233750
v -0.083333 0.250000 0.233750
v 0.083333 -0.245240 0.245240
v 0.083333 -0.250000 0.233750
v 0.083333 -0.233750 0.250000
v 0.083333 0.245240 0.245240
v 0.083333 0.233750 0.250000
v 0.083333 0.250000 0.233750
v 0.233750 -0.083333 0.250000
v 0.245240 -0.083333 0.245240
v 0.245240 -0.237115 0.245240
v 0.233750 -0.233750 0.250000
v 0.250000 -0.083333 0.233750
v 0.250000 -0.233750 0.233750
v 0.237115 -0.245240 0.245240
v 0.233750 -0.250000 0.233750
v 0.245240 0.083333 0.245240
v 0.250000 0.083333 0.233750
v 0.233750 0.083333 0.250000
v 0.237115 0.245240 0.245240
v 0.233750 0.233750 0.250000
v 0.233750 0.250000 0.233750
v 0.245240 0.237115 0.245240
v 0.250000 0.233750 0.233750
v 0.233750 -0.233750 -0.250000
v 0.245240 -0.237115 -0.245240
v 0.245240 -0.083333 -0.245240
v 0.233750 -0.083333 -0.250000
v 0.250000 -0.233750 -0.233750
v 0.250000 -0.083333 -0.233750
v 0.233750 -0.250000 -0.233750
v 0.237115 -0.245240 -0.245240
v 0.083333 -0.245240 -0.245240
v 0.083333 -0.250000 -0.233750
v 0.083333 -0.233750 -0.250000
v 0.245240 0.083333 -0.245240
v 0.233750 0.083333 -0.250000
v 0.250000 0.083333 -0.233750
v 0.245240 0.237115 -0.245240
v 0.233750 0.233750 -0.250000
v 0.250000 0.233750 -0.233750
v 0.237115 0.245240 -0.245240
v 0.083333 0.245240 -0.245240
v 0.083333 0.233750 -0.250000
v 0.233750 0.250000 -0.233750
v 0.083333 0.250000 -0.233750
v -0.083333 -0.245240 -0.245240
v -0.083333 -0.250000 -0.233750
v -0.083333 -0.233750 -0.250000
v -0.083333 0.245240 -0.245240
v -0.083333 0.233750 -0.250000
v -0.083333 0.250000 -0.233750
v -0.233750 -0.083333 -0.250000
v -0.245240 -0.083333 -0.245240
v -0.245240 -0.237115 -0.245240
v -0.233750 -0.233750 -0.250000
v -0.250000 -0.083333 -0.233750
v -0.250000 -0.233750 -0.233750
v -0.237115 -0.245240 -0.245240
v -0.233750 -0.250000 -0.233750
v -0.245240 0.083333 -0.245240
v -0.250000 0.083333 -0.233750
v -0.233750 0.083333 -0.250000
v -0.237115 0.245240 -0.245240
v -0.233750 0.233750 -0.250000
v -0.233750 0.250000 -0.233750
v -0.245240 0.237115 -0.245240
v -0.250000 0.233750 -0.233750
v -0.245240 -0.245240 -0.237115
v -0.245240 -0.245240 -0.083333
v -0.233750 -0.250000 -0.083333
v -0.250000 -0.233750 -0.083333
v -0.245240 0.245240 -0.237115
v -0.245240 0.245240 -0.083333
v -0.250000 0.233750 -0.083333
v -0.233750 0.250000 -0.083333
v -0.245240 -0.245240 0.083333
v -0.233750 -0.250000 0.083333
v -0.250000 -0.233750 0.083333
v -0.245240 0.245240 0.083333
v -0.250000 0.233750 0.083333
v -0.233750 0.250000 0.083333
v -0.245240 -0.245240 0.237115
v -0.245240 0.245240 0.237115
v 0.245240 -0.245240 0.237115
v 0.245240 -0.245240 0.083333
v 0.233750 -0.250000 0.083333
v 0.250000 -0.233750 0.083333
v 0.245240 0.245240 0.237115
v 0.245240 0.245240 0.083333
v 0.250000 0.233750 0.083333
v 0.233750 0.250000 0.083333
v 0.245240 -0.245240 -0.083333
v 0.233750 -0.250000 -0.083333
v 0.250000 -0.233750 -0.083333
v 0.245240 0.245240 -0.083333
v 0.250000 0.233750 -0.083333
v 0.233750 0.250000 -0.083333
v 0.245240 -0.245240 -0.237115
v 0.245240 0.245240 -0.237115
v -0.083333 -0.083333 0.250000
v -0.083333 0.083333 0.250000
v 0.083333 -0.083333 0.250000
v 0.083333 0.083333 0.250000
v 0.083333 -0.083333 -0.250000
v 0.083333 0.083333 -0.250000
v -0.083333 -0.083333 -0.250000
v -0.083333 0.083333 -0.250000
v -0.250000 -0.083333 -0.083333
v -0.250000 0.083333 -0.083333
v -0.250000 -0.083333 0.083333
v -0.250000 0.083333 0.083333
v 0.250000 -0.083333 0.083333
v 0.250000 0.083333 0.083333
v 0.250000 -0.083333 -0.083333
v 0.250000 0.083333 -0.083333
v -0.083333 0.250000 0.083333
v -0.083333 0.250000 -0.083333
v 0.083333 0.250000 0.083333
v 0.083333 0.250000 -0.083333
v -0.083333 -0.250000 -0.083333
v -0.083333 -0.250000 0.083333
v 0.083333 -0.250000 -0.083333
v 0.083333 -0.250000 0.083333

vt 0.000000 1.000000
vt 0.032500 0.032500
vt 0.032500 0.333333
vt 0.333333 0.333333
vt 0.333333 0.032500
vt 0.032500 0.666667
vt 0.333333 0.666667
vt 0.032500 0.967500
vt 0.333333 0.967500
vt 0.666667 0.333333
vt 0.666667 0.032500
vt 0.666667 0.666667
vt 0.666667 0.967500
vt 0.967500 0.333333
vt 0.967500 0.032500
vt 0.967500 0.666667
vt 0.967500 0.967500

vn -0.173941 -0.173941 0.969272
vn -0.596594 -0.238330 0.766338
vn -0.707107 0.000000 0.707107
vn -0.195091 0.000000 0.980785
vn -0.766339 -0.238330 0.596594
vn -0.969272 -0.173941 0.173941
vn -0.980785 0.000000 0.195090
vn -0.173941 -0.969272 0.173941
vn -0.238330 -0.766338 0.596594
vn 0.000000 -0.707107 0.707107
vn 0.000000 -0.980785 0.195091
vn -0.238330 -0.596594 0.766339
vn 0.000000 -0.195090 0.980785
vn -0.596594 0.238330 0.766339
vn -0.173941 0.173941 0.969272
vn -0.969272 0.173941 0.173942
vn -0.766338 0.238330 0.596594
vn -0.238330 0.596594 0.766338
vn 0.000000 0.707107 0.707107
vn 0.000000 0.195091 0.980785
vn -0.238330 0.766338 0.596594
vn -0.173941 0.969272 0.173941
vn 0.000000 0.980785 0.195091
vn 0.195091 0.000000 0.980785
vn 0.707107 0.000000 0.707107
vn 0.596594 -0.238330 0.766338
vn 0.173941 -0.173942 0.969272
vn 0.980785 0.000000 0.195090
vn 0.969272 -0.173941 0.173941
vn 0.766339 -0.238330 0.596594
vn 0.238330 -0.766339 0.596594
vn 0.173941 -0.969272 0.173941
vn 0.238330 -0.596594 0.766338
vn 0.238330 0.596594 0.766338
vn 0.173941 0.173941 0.969272
vn 0.173941 0.969272 0.173941
vn 0.238330 0.766338 0.596594
vn 0.766338 0.238330 0.596594
vn 0.969272 0.173941 0.173941
vn 0.596594 0.238330 0.766338
vn 0.173941 -0.173941 -0.969272
vn 0.596594 -0.238330 -0.766338
vn 0.707107 0.000000 -0.707107
vn 0.195091 0.000000 -0.980785
vn 0.766339 -0.238330 -0.596594
vn 0.969272 -0.173941 -0.173941
vn 0.980785 0.000000 -0.195090
vn 0.173941 -0.969272 -0.173941
vn 0.238330 -0.766338 -0.596594
vn 0.000000 -0.707107 -0.707107
vn 0.000000 -0.980785 -0.195091
vn 0.238330 -0.596594 -0.766339
vn 0.000000 -0.195090 -0.980785
vn 0.596594 0.238330 -0.766339
vn 0.173941 0.173941 -0.969272
vn 0.969272 0.173941 -0.173942
vn 0.766338 0.238330 -0.596594
vn 0.238330 0.596594 -0.766338
vn 0.000000 0.707107 -0.707107
vn 0.000000 0.195091 -0.980785
vn 0.238330 0.766338 -0.596594
vn 0.173941 0.969272 -0.173941
vn 0.000000 0.980785 -0.195091
vn -0.195091 0.000000 -0.980785
vn -0.707107 0.000000 -0.707107
vn -0.596594 -0.238330 -0.766338
vn -0.173941 -0.173942 -0.969272
vn -0.980785 0.000000 -0.195090
vn -0.969272 -0.173941 -0.173941
vn -0.766339 -0.238330 -0.596594
vn -0.238330 -0.766339 -0.596594
vn -0.173941 -0.969272 -0.173941
vn -0.238330 -0.596594 -0.766338
vn -0.238330 0.596594 -0.766338
vn -0.173941 0.173941 -0.969272
vn -0.173941 0.969272 -0.173941
vn -0.238330 0.766338 -0.596594
vn -0.766338 0.238330 -0.596594
vn -0.969272 0.173941 -0.173941
vn -0.596594 0.238330 -0.766338
vn -0.596594 -0.766338 -0.238330
vn -0.707107 -0.707107 0.000000
vn -0.195091 -0.980785 0.000000
vn -0.766338 -0.596594 -0.238330
vn -0.980785 -0.195091 0.000000
vn -0.766338 0.596594 -0.238330
vn -0.707107 0.707107 0.000000
vn -0.980785 0.195091 0.000000
vn -0.596594 0.766339 -0.238330
vn -0.195090 0.980785 0.000000
vn -0.766339 -0.596594 0.238330
vn -0.596594 -0.766338 0.238330
vn -0.596594 0.766338 0.238330
vn -0.766338 0.596594 0.238330
vn 0.596594 -0.766338 0.238330
vn 0.707107 -0.707107 0.000000
vn 0.195091 -0.980785 0.000000
vn 0.766338 -0.596594 0.238330
vn 0.980785 -0.195091 0.000000
vn 0.766338 0.596594 0.238330
vn 0.707107 0.707107 0.000000
vn 0.980785 0.195091 0.000000
vn 0.596594 0.766339 0.238330
vn 0.195090 0.980785 0.000000
vn 0.766339 -0.596594 -0.238330
vn 0.596594 -0.766338 -0.238330
vn 0.596594 0.766338 -0.238330
vn 0.766338 0.596594 -0.238330
vn -0.845397 -0.304629 0.438753
vn -0.845397 -0.438753 0.304629
vn -0.304629 -0.438753 0.845397
vn -0.438754 -0.304629 0.845397
vn -0.438754 -0.845397 0.304629
vn -0.304629 -0.845397 0.438754
vn -0.683350 -0.257035 0.683349
vn -0.257035 -0.683349 0.683350
vn -0.683350 -0.683349 0.257035
vn -0.438753 0.304629 0.845397
vn -0.304629 0.438754 0.845397
vn -0.845397 0.438753 0.304629
vn -0.845397 0.304629 0.438754
vn -0.304629 0.845397 0.438754
vn -0.438753 0.845397 0.304629
vn -0.683349 0.257035 0.683350
vn -0.683349 0.683350 0.257035
vn -0.257035 0.683350 0.683349
vn 0.438754 -0.304629 0.845397
vn 0.304629 -0.438754 0.845397
vn 0.845397 -0.438754 0.304629
vn 0.845397 -0.304629 0.438753
vn 0.304629 -0.845397 0.438753
vn 0.438754 -0.845397 0.304629
vn 0.683350 -0.257035 0.683349
vn 0.683350 -0.683349 0.257035
vn 0.257035 -0.683350 0.683349
vn 0.304629 0.438753 0.845397
vn 0.438753 0.304629 0.845397
vn 0.438753 0.845397 0.304629
vn 0.304629 0.845397 0.438753
vn 0.845397 0.304629 0.438753
vn 0.845397 0.438754 0.304629
vn 0.257035 0.683349 0.683350
vn 0.683349 0.683350 0.257035
vn 0.683350 0.257035 0.683349
vn 0.845397 -0.304629 -0.438753
vn 0.845397 -0.438753 -0.304629
vn 0.304629 -0.438753 -0.845397
vn 0.438754 -0.304629 -0.845397
vn 0.438754 -0.845397 -0.304629
vn 0.304629 -0.845397 -0.438754
vn 0.683350 -0.257035 -0.683349
vn 0.257035 -0.683349 -0.683350
vn 0.683350 -0.683349 -0.257035
vn 0.438753 0.304629 -0.845397
vn 0.304629 0.438754 -0.845397
vn 0.845397 0.438753 -0.304629
vn 0.845397 0.304629 -0.438754
vn 0.304629 0.845397 -0.438754
vn 0.438753 0.845397 -0.304629
vn 0.683349 0.257035 -0.683350
vn 0.683349 0.683350 -0.257035
vn 0.257035 0.683350 -0.683349
vn -0.438754 -0.304629 -0.845397
vn -0.304629 -0.438754 -0.845397
vn -0.845397 -0.438754 -0.304629
vn -0.845397 -0.304629 -0.438753
vn -0.304629 -0.845397 -0.438753
vn -0.438754 -0.845397 -0.304629
vn -0.683350 -0.257035 -0.683349
vn -0.683350 -0.683349 -0.257035
vn -0.257035 -0.683350 -0.683349
vn -0.304629 0.438753 -0.845397
vn -0.438753 0.304629 -0.845397
vn -0.438753 0.845397 -0.304629
vn -0.304629 0.845397 -0.438753
vn -0.845397 0.304629 -0.438753
vn -0.845397 0.438754 -0.304629
vn -0.257035 0.683349 -0.683350
vn -0.683349 0.683350 -0.257035
vn -0.683350 0.257035 -0.683349
vn 0.000000 0.000000 1.000000
vn 0.000000 0.000000 -1.000000
vn -1.000000 0.000000 0.000000
vn 1.000000 0.000000 0.000000
vn 0.000000 1.000000 0.000000
vn 0.000000 -1.000000 0.000000

usemtl default
f 4/1/4 3/1/3 2/1/2 1/1/1
f 3/1/3 6/1/7 5/1/6 2/1/5
f 10/1/11 9/1/10 8/1/9 7/1/8
f 9/1/10 11/1/13 1/1/1 8/1/12
f 13/1/4 12/1/3 3/1/3 4/1/4
f 12/1/3 14/1/7 6/1/7 3/1/3
f 16/1/15 15/1/14 12/1/3 13/1/4
f 15/1/17 17/1/16 14/1/7 12/1/3
f 20/1/20 19/1/19 18/1/18 16/1/15
f 19/1/19 22/1/23 21/1/22 18/1/21
f 24/1/11 23/1/10 9/1/10 10/1/11
f 23/1/10 25/1/13 11/1/13 9/1/10
f 27/1/20 26/1/19 19/1/19 20/1/20
f 26/1/19 28/1/23 22/1/23 19/1/19
f 32/1/27 31/1/26 30/1/25 29/1/24
f 31/1/30 34/1/29 33/1/28 30/1/25
f 36/1/32 35/1/31 23/1/10 24/1/11
f 35/1/33 32/1/27 25/1/13 23/1/10
f 38/1/28 37/1/25 30/1/25 33/1/28
f 37/1/25 39/1/24 29/1/24 30/1/25
f 41/1/35 40/1/34 26/1/19 27/1/20
f 40/1/37 42/1/36 28/1/23 26/1/19
f 44/1/39 43/1/38 37/1/25 38/1/28
f 43/1/40 41/1/35 39/1/24 37/1/25
f 48/1/44 47/1/43 46/1/42 45/1/41
f 47/1/43 50/1/47 49/1/46 46/1/45
f 54/1/51 53/1/50 52/1/49 51/1/48
f 53/1/50 55/1/53 45/1/41 52/1/52
f 57/1/44 56/1/43 47/1/43 48/1/44
f 56/1/43 58/1/47 50/1/47 47/1/43
f 60/1/55 59/1/54 56/1/43 57/1/44
f 59/1/57 61/1/56 58/1/47 56/1/43
f 64/1/60 63/1/59 62/1/58 60/1/55
f 63/1/59 66/1/63 65/1/62 62/1/61
f 68/1/51 67/1/50 53/1/50 54/1/51
f 67/1/50 69/1/53 55/1/53 53/1/50
f 71/1/60 70/1/59 63/1/59 64/1/60
f 70/1/59 72/1/63 66/1/63 63/1/59
f 76/1/67 75/1/66 74/1/65 73/1/64
f 75/1/70 78/1/69 77/1/68 74/1/65
f 80/1/72 79/1/71 67/1/50 68/1/51
f 79/1/73 76/1/67 69/1/53 67/1/50
f 82/1/68 81/1/65 74/1/65 77/1/68
f 81/1/65 83/1/64 73/1/64 74/1/65
f 85/1/75 84/1/74 70/1/59 71/1/60
f 84/1/77 86/1/76 72/1/63 70/1/59
f 88/1/79 87/1/78 81/1/65 82/1/68
f 87/1/80 85/1/75 83/1/64 81/1/65
f 91/1/83 90/1/82 89/1/81 80/1/72
f 90/1/82 92/1/85 78/1/69 89/1/84
f 95/1/88 94/1/87 93/1/86 88/1/79
f 94/1/87 96/1/90 86/1/76 93/1/89
f 98/1/83 97/1/82 90/1/82 91/1/83
f 97/1/82 99/1/85 92/1/85 90/1/82
f 101/1/88 100/1/87 94/1/87 95/1/88
f 100/1/87 102/1/90 96/1/90 94/1/87
f 99/1/85 97/1/82 103/1/91 5/1/6
f 97/1/82 98/1/83 7/1/8 103/1/92
f 102/1/90 100/1/87 104/1/93 21/1/22
f 100/1/87 101/1/88 17/1/16 104/1/94
f 107/1/97 106/1/96 105/1/95 36/1/32
f 106/1/96 108/1/99 34/1/29 105/1/98
f 111/1/102 110/1/101 109/1/100 44/1/39
f 110/1/101 112/1/104 42/1/36 109/1/103
f 114/1/97 113/1/96 106/1/96 107/1/97
f 113/1/96 115/1/99 108/1/99 106/1/96
f 117/1/102 116/1/101 110/1/101 111/1/102
f 116/1/101 118/1/104 112/1/104 110/1/101
f 115/1/99 113/1/96 119/1/105 49/1/46
f 113/1/96 114/1/97 51/1/48 119/1/106
f 118/1/104 116/1/101 120/1/107 65/1/62
f 116/1/101 117/1/102 61/1/56 120/1/108
f 103/1/110 2/1/109 5/1/6
f 2/1/112 8/1/111 1/1/1
f 8/1/114 103/1/113 7/1/8
f 103/1/117 8/1/116 2/1/115
f 18/1/119 15/1/118 16/1/15
f 15/1/121 104/1/120 17/1/16
f 104/1/123 18/1/122 21/1/22
f 18/1/126 104/1/125 15/1/124
f 35/1/128 31/1/127 32/1/27
f 31/1/130 105/1/129 34/1/29
f 105/1/132 35/1/131 36/1/32
f 35/1/135 105/1/134 31/1/133
f 43/1/137 40/1/136 41/1/35
f 40/1/139 109/1/138 42/1/36
f 109/1/141 43/1/140 44/1/39
f 43/1/144 109/1/143 40/1/142
f 119/1/146 46/1/145 49/1/46
f 46/1/148 52/1/147 45/1/41
f 52/1/150 119/1/149 51/1/48
f 119/1/153 52/1/152 46/1/151
f 62/1/155 59/1/154 60/1/55
f 59/1/157 120/1/156 61/1/56
f 120/1/159 62/1/158 65/1/62
f 62/1/162 120/1/161 59/1/160
f 79/1/164 75/1/163 76/1/67
f 75/1/166 89/1/165 78/1/69
f 89/1/168 79/1/167 80/1/72
f 79/1/171 89/1/170 75/1/169
f 87/1/173 84/1/172 85/1/75
f 84/1/175 93/1/174 86/1/76
f 93/1/177 87/1/176 88/1/79
f 87/1/180 93/1/179 84/1/178
f 11/5/13 121/4/181 4/3/4 1/2/1
f 121/4/181 122/7/181 13/6/4 4/3/4
f 122/7/181 20/9/20 16/8/15 13/6/4
f 25/11/13 123/10/181 121/4/181 11/5/13
f 123/10/181 124/12/181 122/7/181 121/4/181
f 124/12/181 27/13/20 20/9/20 122/7/181
f 32/15/27 29/14/24 123/10/181 25/11/13
f 29/14/24 39/16/24 124/12/181 123/10/181
f 39/16/24 41/17/35 27/13/20 124/12/181
f 55/5/53 125/4/182 48/3/44 45/2/41
f 125/4/182 126/7/182 57/6/44 48/3/44
f 126/7/182 64/9/60 60/8/55 57/6/44
f 69/11/53 127/10/182 125/4/182 55/5/53
f 127/10/182 128/12/182 126/7/182 125/4/182
f 128/12/182 71/13/60 64/9/60 126/7/182
f 76/15/67 73/14/64 127/10/182 69/11/53
f 73/14/64 83/16/64 128/12/182 127/10/182
f 83/16/64 85/17/75 71/13/60 128/12/182
f 92/5/85 129/4/183 77/3/68 78/2/69
f 129/4/183 130/7/183 82/6/68 77/3/68
f 130/7/183 95/9/88 88/8/79 82/6/68
f 99/11/85 131/10/183 129/4/183 92/5/85
f 131/10/183 132/12/183 130/7/183 129/4/183
f 132/12/183 101/13/88 95/9/88 130/7/183
f 5/15/6 6/14/7 131/10/183 99/11/85
f 6/14/7 14/16/7 132/12/183 131/10/183
f 14/16/7 17/17/16 101/13/88 132/12/183
f 108/5/99 133/4/184 33/3/28 34/2/29
f 133/4/184 134/7/184 38/6/28 33/3/28
f 134/7/184 111/9/102 44/8/39 38/6/28
f 115/11/99 135/10/184 133/4/184 108/5/99
f 135/10/184 136/12/184 134/7/184 133/4/184
f 136/12/184 117/13/102 111/9/102 134/7/184
f 49/15/46 50/14/47 135/10/184 115/11/99
f 50/14/47 58/16/47 136/12/184 135/10/184
f 58/16/47 61/17/56 117/13/102 136/12/184
f 22/5/23 137/4/185 102/3/90 21/2/22
f 137/4/185 138/7/185 96/6/90 102/3/90
f 138/7/185 72/9/63 86/8/76 96/6/90
f 28/11/23 139/10/185 137/4/185 22/5/23
f 139/10/185 140/12/185 138/7/185 137/4/185
f 140/12/185 66/13/63 72/9/63 138/7/185
f 42/15/36 112/14/104 139/10/185 28/11/23
f 112/14/104 118/16/104 140/12/185 139/10/185
f 118/16/104 65/17/62 66/13/63 140/12/185
f 68/5/51 141/4/186 91/3/83 80/2/72
f 141/4/186 142/7/186 98/6/83 91/3/83
f 142/7/186 10/9/11 7/8/8 98/6/83
f 54/11/51 143/10/186 141/4/186 68/5/51
f 143/10/186 144/12/186 142/7/186 141/4/186
f 144/12/186 24/13/11 10/9/11 142/7/186
f 51/15/48 114/14/97 143/10/186 54/11/51
f 114/14/97 107/16/97 144/12/186 143/10/186
f 107/16/97 36/17/32 24/13/11 144/12/186

