# WaveFront *.obj file (generated by Cheetah3D)

mtllib item_cube.mtl

g 立方体
v -0.216250 -0.216250 0.250000
v -0.233125 -0.216250 0.250000
v -0.233125 0.216250 0.250000
v -0.216250 0.216250 0.250000
v -0.245781 -0.216250 0.245781
v -0.245781 0.216250 0.245781
v -0.250000 -0.216250 0.233125
v -0.250000 0.216250 0.233125
v -0.250000 -0.216250 0.216250
v -0.250000 0.216250 0.216250
v -0.216250 0.233125 0.250000
v 0.216250 0.233125 0.250000
v 0.216250 0.216250 0.250000
v -0.216250 0.245781 0.245781
v 0.216250 0.245781 0.245781
v -0.216250 0.250000 0.233125
v 0.216250 0.250000 0.233125
v -0.216250 0.250000 0.216250
v 0.216250 0.250000 0.216250
v 0.233125 0.216250 0.250000
v 0.233125 -0.216250 0.250000
v 0.216250 -0.216250 0.250000
v 0.245781 0.216250 0.245781
v 0.245781 -0.216250 0.245781
v 0.250000 0.216250 0.233125
v 0.250000 -0.216250 0.233125
v 0.250000 0.216250 0.216250
v 0.250000 -0.216250 0.216250
v -0.216250 -0.250000 0.216250
v -0.216250 -0.250000 0.233125
v 0.216250 -0.250000 0.233125
v 0.216250 -0.250000 0.216250
v -0.216250 -0.245781 0.245781
v 0.216250 -0.245781 0.245781
v -0.216250 -0.233125 0.250000
v 0.216250 -0.233125 0.250000
v 0.216250 -0.216250 -0.250000
v 0.233125 -0.216250 -0.250000
v 0.233125 0.216250 -0.250000
v 0.216250 0.216250 -0.250000
v 0.245781 -0.216250 -0.245781
v 0.245781 0.216250 -0.245781
v 0.250000 -0.216250 -0.233125
v 0.250000 0.216250 -0.233125
v 0.250000 -0.216250 -0.216250
v 0.250000 0.216250 -0.216250
v 0.216250 0.233125 -0.250000
v -0.216250 0.233125 -0.250000
v -0.216250 0.216250 -0.250000
v 0.216250 0.245781 -0.245781
v -0.216250 0.245781 -0.245781
v 0.216250 0.250000 -0.233125
v -0.216250 0.250000 -0.233125
v 0.216250 0.250000 -0.216250
v -0.216250 0.250000 -0.216250
v -0.233125 0.216250 -0.250000
v -0.233125 -0.216250 -0.250000
v -0.216250 -0.216250 -0.250000
v -0.245781 0.216250 -0.245781
v -0.245781 -0.216250 -0.245781
v -0.250000 0.216250 -0.233125
v -0.250000 -0.216250 -0.233125
v -0.250000 0.216250 -0.216250
v -0.250000 -0.216250 -0.216250
v 0.216250 -0.250000 -0.216250
v 0.216250 -0.250000 -0.233125
v -0.216250 -0.250000 -0.233125
v -0.216250 -0.250000 -0.216250
v 0.216250 -0.245781 -0.245781
v -0.216250 -0.245781 -0.245781
v 0.216250 -0.233125 -0.250000
v -0.216250 -0.233125 -0.250000
v -0.233125 0.250000 0.216250
v -0.233125 0.250000 -0.216250
v -0.245781 0.245781 0.216250
v -0.245781 0.245781 -0.216250
v -0.250000 0.233125 0.216250
v -0.250000 0.233125 -0.216250
v -0.250000 -0.233125 0.216250
v -0.250000 -0.233125 -0.216250
v -0.245781 -0.245781 0.216250
v -0.245781 -0.245781 -0.216250
v -0.233125 -0.250000 0.216250
v -0.233125 -0.250000 -0.216250
v 0.250000 0.233125 0.216250
v 0.250000 0.233125 -0.216250
v 0.245781 0.245781 0.216250
v 0.245781 0.245781 -0.216250
v 0.233125 0.250000 0.216250
v 0.233125 0.250000 -0.216250
v 0.233125 -0.250000 0.216250
v 0.233125 -0.250000 -0.216250
v 0.245781 -0.245781 0.216250
v 0.245781 -0.245781 -0.216250
v 0.250000 -0.233125 0.216250
v 0.250000 -0.233125 -0.216250
v -0.245781 -0.245781 0.233125
v -0.250000 -0.233125 0.233125
v -0.245781 -0.233125 0.245781
v -0.233125 -0.233125 0.250000
v -0.233125 -0.245781 0.245781
v -0.233125 -0.250000 0.233125
v -0.242500 -0.242500 0.242500
v -0.233125 0.245781 0.245781
v -0.233125 0.233125 0.250000
v -0.245781 0.233125 0.245781
v -0.250000 0.233125 0.233125
v -0.245781 0.245781 0.233125
v -0.233125 0.250000 0.233125
v -0.242500 0.242500 0.242500
v 0.245781 0.233125 0.245781
v 0.233125 0.233125 0.250000
v 0.233125 0.245781 0.245781
v 0.233125 0.250000 0.233125
v 0.245781 0.245781 0.233125
v 0.250000 0.233125 0.233125
v 0.242500 0.242500 0.242500
v 0.233125 -0.245781 0.245781
v 0.233125 -0.233125 0.250000
v 0.245781 -0.233125 0.245781
v 0.250000 -0.233125 0.233125
v 0.245781 -0.245781 0.233125
v 0.233125 -0.250000 0.233125
v 0.242500 -0.242500 0.242500
v 0.245781 -0.245781 -0.233125
v 0.250000 -0.233125 -0.233125
v 0.245781 -0.233125 -0.245781
v 0.233125 -0.233125 -0.250000
v 0.233125 -0.245781 -0.245781
v 0.233125 -0.250000 -0.233125
v 0.242500 -0.242500 -0.242500
v 0.233125 0.245781 -0.245781
v 0.233125 0.233125 -0.250000
v 0.245781 0.233125 -0.245781
v 0.250000 0.233125 -0.233125
v 0.245781 0.245781 -0.233125
v 0.233125 0.250000 -0.233125
v 0.242500 0.242500 -0.242500
v -0.245781 0.233125 -0.245781
v -0.233125 0.233125 -0.250000
v -0.233125 0.245781 -0.245781
v -0.233125 0.250000 -0.233125
v -0.245781 0.245781 -0.233125
v -0.250000 0.233125 -0.233125
v -0.242500 0.242500 -0.242500
v -0.233125 -0.245781 -0.245781
v -0.233125 -0.233125 -0.250000
v -0.245781 -0.233125 -0.245781
v -0.250000 -0.233125 -0.233125
v -0.245781 -0.245781 -0.233125
v -0.233125 -0.250000 -0.233125
v -0.242500 -0.242500 -0.242500

vt 0.000000 1.000000
vt 0.067500 0.067500
vt 0.067500 0.932500
vt 0.932500 0.932500
vt 0.932500 0.067500

vn 0.000000 0.000000 1.000000
vn -0.160182 0.000000 0.987087
vn -0.707107 0.000000 0.707107
vn -0.987087 0.000000 0.160182
vn -1.000000 0.000000 0.000000
vn 0.000000 0.160182 0.987087
vn 0.000000 0.707107 0.707107
vn 0.000000 0.987087 0.160182
vn 0.000000 1.000000 0.000000
vn 0.160182 -0.000000 0.987087
vn 0.707107 -0.000000 0.707107
vn 0.987087 -0.000000 0.160182
vn 1.000000 0.000000 0.000000
vn 0.000000 -1.000000 0.000000
vn 0.000000 -0.987087 0.160182
vn 0.000000 -0.707107 0.707107
vn 0.000000 -0.160182 0.987087
vn 0.000000 0.000000 -1.000000
vn 0.160182 0.000000 -0.987087
vn 0.707107 0.000000 -0.707107
vn 0.987087 0.000000 -0.160182
vn 0.000000 0.160182 -0.987087
vn 0.000000 0.707107 -0.707107
vn 0.000000 0.987087 -0.160182
vn -0.160182 -0.000000 -0.987087
vn -0.707107 -0.000000 -0.707107
vn -0.987087 -0.000000 -0.160182
vn -0.000000 -0.987087 -0.160182
vn 0.000000 -0.987087 -0.160182
vn -0.000000 -0.707107 -0.707107
vn 0.000000 -0.707107 -0.707107
vn -0.000000 -0.160182 -0.987087
vn 0.000000 -0.160182 -0.987087
vn -0.160182 0.987087 0.000000
vn -0.707107 0.707107 0.000000
vn -0.987087 0.160182 0.000000
vn -0.987087 -0.160182 -0.000000
vn -0.707107 -0.707107 -0.000000
vn -0.160182 -0.987087 -0.000000
vn 0.987087 0.160182 -0.000000
vn 0.707107 0.707107 -0.000000
vn 0.160182 0.987087 -0.000000
vn 0.160182 -0.987087 0.000000
vn 0.707107 -0.707107 0.000000
vn 0.987087 -0.160182 0.000000
vn -0.693606 -0.693607 0.194473
vn -0.970285 -0.171094 0.171094
vn -0.693606 -0.194473 0.693607
vn -0.171094 -0.171094 0.970285
vn -0.194473 -0.693607 0.693606
vn -0.171094 -0.970285 0.171094
vn -0.577350 -0.577350 0.577350
vn -0.194473 0.693607 0.693606
vn -0.171094 0.171094 0.970285
vn -0.693607 0.194474 0.693606
vn -0.970285 0.171094 0.171094
vn -0.693606 0.693607 0.194474
vn -0.171094 0.970285 0.171094
vn -0.577350 0.577351 0.577350
vn 0.693607 0.194473 0.693607
vn 0.171094 0.171094 0.970285
vn 0.194473 0.693607 0.693606
vn -0.000000 0.707107 0.707107
vn -0.000000 0.987087 0.160182
vn 0.171094 0.970285 0.171094
vn 0.693607 0.693606 0.194473
vn 0.970285 0.171094 0.171094
vn -0.000000 0.160182 0.987087
vn 0.577350 0.577350 0.577350
vn 0.194473 -0.693607 0.693606
vn 0.171094 -0.171094 0.970285
vn 0.693607 -0.194474 0.693606
vn 0.707107 0.000000 0.707107
vn 0.987087 0.000000 0.160182
vn 0.970285 -0.171094 0.171094
vn 0.693606 -0.693607 0.194474
vn 0.171094 -0.970285 0.171094
vn 0.160182 0.000000 0.987087
vn 0.577350 -0.577351 0.577350
vn 0.693606 -0.693607 -0.194473
vn 0.970285 -0.171094 -0.171094
vn 0.693606 -0.194473 -0.693607
vn 0.171094 -0.171094 -0.970285
vn 0.194473 -0.693607 -0.693606
vn 0.171094 -0.970285 -0.171094
vn 0.577350 -0.577350 -0.577350
vn 0.194473 0.693607 -0.693606
vn 0.171094 0.171094 -0.970285
vn 0.693607 0.194474 -0.693606
vn 0.970285 0.171094 -0.171094
vn 0.693606 0.693607 -0.194474
vn 0.707107 0.707107 0.000000
vn 0.160182 0.987087 0.000000
vn 0.171094 0.970285 -0.171094
vn 0.577350 0.577351 -0.577350
vn 0.987087 0.160182 0.000000
vn -0.693607 0.194473 -0.693607
vn -0.171094 0.171094 -0.970285
vn -0.194473 0.693607 -0.693606
vn -0.171094 0.970285 -0.171094
vn -0.693607 0.693606 -0.194473
vn -0.970285 0.171094 -0.171094
vn -0.577350 0.577350 -0.577350
vn -0.194473 -0.693607 -0.693606
vn -0.171094 -0.171094 -0.970285
vn -0.693607 -0.194474 -0.693606
vn -0.707107 0.000000 -0.707107
vn -0.987087 0.000000 -0.160182
vn -0.970285 -0.171094 -0.171094
vn -0.693606 -0.693607 -0.194474
vn -0.707107 -0.707107 0.000000
vn -0.160182 -0.987087 0.000000
vn -0.171094 -0.970285 -0.171094
vn -0.160182 0.000000 -0.987087
vn -0.577350 -0.577351 -0.577350
vn -0.987087 -0.160182 0.000000

usemtl default
f 4/1/1 3/1/2 2/1/2 1/1/1
f 3/1/2 6/1/3 5/1/3 2/1/2
f 6/1/3 8/1/4 7/1/4 5/1/3
f 8/1/4 10/1/5 9/1/5 7/1/4
f 13/1/1 12/1/6 11/1/6 4/1/1
f 12/1/6 15/1/7 14/1/7 11/1/6
f 15/1/7 17/1/8 16/1/8 14/1/7
f 17/1/8 19/1/9 18/1/9 16/1/8
f 22/1/1 21/1/10 20/1/10 13/1/1
f 21/1/10 24/1/11 23/1/11 20/1/10
f 24/1/11 26/1/12 25/1/12 23/1/11
f 26/1/12 28/1/13 27/1/13 25/1/12
f 32/1/14 31/1/15 30/1/15 29/1/14
f 31/1/15 34/1/16 33/1/16 30/1/15
f 34/1/16 36/1/17 35/1/17 33/1/16
f 36/1/17 22/1/1 1/1/1 35/1/17
f 40/1/18 39/1/19 38/1/19 37/1/18
f 39/1/19 42/1/20 41/1/20 38/1/19
f 42/1/20 44/1/21 43/1/21 41/1/20
f 44/1/21 46/1/13 45/1/13 43/1/21
f 49/1/18 48/1/22 47/1/22 40/1/18
f 48/1/22 51/1/23 50/1/23 47/1/22
f 51/1/23 53/1/24 52/1/24 50/1/23
f 53/1/24 55/1/9 54/1/9 52/1/24
f 58/1/18 57/1/25 56/1/25 49/1/18
f 57/1/25 60/1/26 59/1/26 56/1/25
f 60/1/26 62/1/27 61/1/27 59/1/26
f 62/1/27 64/1/5 63/1/5 61/1/27
f 68/1/14 67/1/29 66/1/28 65/1/14
f 67/1/29 70/1/31 69/1/30 66/1/28
f 70/1/31 72/1/33 71/1/32 69/1/30
f 72/1/33 58/1/18 37/1/18 71/1/32
f 55/1/9 74/1/34 73/1/34 18/1/9
f 74/1/34 76/1/35 75/1/35 73/1/34
f 76/1/35 78/1/36 77/1/36 75/1/35
f 78/1/36 63/1/5 10/1/5 77/1/36
f 64/1/5 80/1/37 79/1/37 9/1/5
f 80/1/37 82/1/38 81/1/38 79/1/37
f 82/1/38 84/1/39 83/1/39 81/1/38
f 84/1/39 68/1/14 29/1/14 83/1/39
f 46/1/13 86/1/40 85/1/40 27/1/13
f 86/1/40 88/1/41 87/1/41 85/1/40
f 88/1/41 90/1/42 89/1/42 87/1/41
f 90/1/42 54/1/9 19/1/9 89/1/42
f 65/1/14 92/1/43 91/1/43 32/1/14
f 92/1/43 94/1/44 93/1/44 91/1/43
f 94/1/44 96/1/45 95/1/45 93/1/44
f 96/1/45 45/1/13 28/1/13 95/1/45
f 98/1/47 79/1/37 81/1/38 97/1/46
f 100/1/49 2/1/2 5/1/3 99/1/48
f 102/1/51 30/1/15 33/1/16 101/1/50
f 79/1/37 98/1/47 7/1/4 9/1/5
f 98/1/47 99/1/48 5/1/3 7/1/4
f 98/1/47 97/1/46 103/1/52 99/1/48
f 2/1/2 100/1/49 35/1/17 1/1/1
f 100/1/49 101/1/50 33/1/16 35/1/17
f 100/1/49 99/1/48 103/1/52 101/1/50
f 30/1/15 102/1/51 83/1/39 29/1/14
f 102/1/51 97/1/46 81/1/38 83/1/39
f 102/1/51 101/1/50 103/1/52 97/1/46
f 105/1/54 11/1/6 14/1/7 104/1/53
f 107/1/56 8/1/4 6/1/3 106/1/55
f 109/1/58 73/1/34 75/1/35 108/1/57
f 11/1/6 105/1/54 3/1/2 4/1/1
f 105/1/54 106/1/55 6/1/3 3/1/2
f 105/1/54 104/1/53 110/1/59 106/1/55
f 8/1/4 107/1/56 77/1/36 10/1/5
f 107/1/56 108/1/57 75/1/35 77/1/36
f 107/1/56 106/1/55 110/1/59 108/1/57
f 73/1/34 109/1/58 16/1/8 18/1/9
f 109/1/58 104/1/53 14/1/7 16/1/8
f 109/1/58 108/1/57 110/1/59 104/1/53
f 112/1/61 20/1/10 23/1/11 111/1/60
f 114/1/65 17/1/64 15/1/63 113/1/62
f 116/1/67 85/1/40 87/1/41 115/1/66
f 20/1/10 112/1/61 12/1/68 13/1/1
f 112/1/61 113/1/62 15/1/63 12/1/68
f 112/1/61 111/1/60 117/1/69 113/1/62
f 17/1/64 114/1/65 89/1/42 19/1/9
f 114/1/65 115/1/66 87/1/41 89/1/42
f 114/1/65 113/1/62 117/1/69 115/1/66
f 85/1/40 116/1/67 25/1/12 27/1/13
f 116/1/67 111/1/60 23/1/11 25/1/12
f 116/1/67 115/1/66 117/1/69 111/1/60
f 119/1/71 36/1/17 34/1/16 118/1/70
f 121/1/75 26/1/74 24/1/73 120/1/72
f 123/1/77 91/1/43 93/1/44 122/1/76
f 36/1/17 119/1/71 21/1/78 22/1/1
f 119/1/71 120/1/72 24/1/73 21/1/78
f 119/1/71 118/1/70 124/1/79 120/1/72
f 26/1/74 121/1/75 95/1/45 28/1/13
f 121/1/75 122/1/76 93/1/44 95/1/45
f 121/1/75 120/1/72 124/1/79 122/1/76
f 91/1/43 123/1/77 31/1/15 32/1/14
f 123/1/77 118/1/70 34/1/16 31/1/15
f 123/1/77 122/1/76 124/1/79 118/1/70
f 126/1/81 96/1/45 94/1/44 125/1/80
f 128/1/83 38/1/19 41/1/20 127/1/82
f 130/1/85 66/1/28 69/1/30 129/1/84
f 96/1/45 126/1/81 43/1/21 45/1/13
f 126/1/81 127/1/82 41/1/20 43/1/21
f 126/1/81 125/1/80 131/1/86 127/1/82
f 38/1/19 128/1/83 71/1/32 37/1/18
f 128/1/83 129/1/84 69/1/30 71/1/32
f 128/1/83 127/1/82 131/1/86 129/1/84
f 66/1/28 130/1/85 92/1/43 65/1/14
f 130/1/85 125/1/80 94/1/44 92/1/43
f 130/1/85 129/1/84 131/1/86 125/1/80
f 133/1/88 47/1/22 50/1/23 132/1/87
f 135/1/90 44/1/21 42/1/20 134/1/89
f 137/1/94 90/1/93 88/1/92 136/1/91
f 47/1/22 133/1/88 39/1/19 40/1/18
f 133/1/88 134/1/89 42/1/20 39/1/19
f 133/1/88 132/1/87 138/1/95 134/1/89
f 44/1/21 135/1/90 86/1/96 46/1/13
f 135/1/90 136/1/91 88/1/92 86/1/96
f 135/1/90 134/1/89 138/1/95 136/1/91
f 90/1/93 137/1/94 52/1/24 54/1/9
f 137/1/94 132/1/87 50/1/23 52/1/24
f 137/1/94 136/1/91 138/1/95 132/1/87
f 140/1/98 56/1/25 59/1/26 139/1/97
f 142/1/100 53/1/24 51/1/23 141/1/99
f 144/1/102 78/1/36 76/1/35 143/1/101
f 56/1/25 140/1/98 48/1/22 49/1/18
f 140/1/98 141/1/99 51/1/23 48/1/22
f 140/1/98 139/1/97 145/1/103 141/1/99
f 53/1/24 142/1/100 74/1/34 55/1/9
f 142/1/100 143/1/101 76/1/35 74/1/34
f 142/1/100 141/1/99 145/1/103 143/1/101
f 78/1/36 144/1/102 61/1/27 63/1/5
f 144/1/102 139/1/97 59/1/26 61/1/27
f 144/1/102 143/1/101 145/1/103 139/1/97
f 147/1/105 72/1/33 70/1/31 146/1/104
f 149/1/109 62/1/108 60/1/107 148/1/106
f 151/1/113 84/1/112 82/1/111 150/1/110
f 72/1/33 147/1/105 57/1/114 58/1/18
f 147/1/105 148/1/106 60/1/107 57/1/114
f 147/1/105 146/1/104 152/1/115 148/1/106
f 62/1/108 149/1/109 80/1/116 64/1/5
f 149/1/109 150/1/110 82/1/111 80/1/116
f 149/1/109 148/1/106 152/1/115 150/1/110
f 84/1/112 151/1/113 67/1/29 68/1/14
f 151/1/113 146/1/104 70/1/31 67/1/29
f 151/1/113 150/1/110 152/1/115 146/1/104
f 22/5/1 13/4/1 4/3/1 1/2/1
f 58/5/18 49/4/18 40/3/18 37/2/18
f 9/5/5 10/4/5 63/3/5 64/2/5
f 45/5/13 46/4/13 27/3/13 28/2/13
f 19/5/9 54/4/9 55/3/9 18/2/9
f 65/5/14 32/4/14 29/3/14 68/2/14

