# WaveFront *.obj file (generated by Cheetah3D)

mtllib oneway.mtl

g 押し出し.1
v -0.005997 -0.485500 -0.046120
v 0.005997 -0.485500 -0.046120
v 0.005997 -0.314500 -0.046120
v -0.005997 -0.314500 -0.046120
v 0.000000 -0.300000 -0.053662
v 0.275461 -0.314500 -0.372828
v 0.261467 -0.300000 -0.370674
v 0.272033 -0.314500 -0.380099
v 0.275461 -0.485500 -0.372828
v 0.272033 -0.485500 -0.380099
v 0.000000 -0.500000 -0.053662
v 0.261467 -0.500000 -0.370674
v -0.272033 -0.314500 -0.380099
v -0.261467 -0.300000 -0.370674
v -0.275461 -0.314500 -0.372828
v -0.272033 -0.485500 -0.380099
v -0.275461 -0.485500 -0.372828
v -0.261467 -0.500000 -0.370674

vt 0.000000 1.000000
vt 0.072500 0.927500
vt 0.927500 0.927500
vt 0.927500 -2.330165
vt 0.072500 -2.330165
vt 0.072500 -2.475165
vt 0.927500 -2.475164
vt 0.927500 -6.660292
vt 0.072500 -6.660291
vt 0.072500 -6.805292
vt 0.927500 -6.805291
vt 0.927500 -10.062956
vt 0.072500 -10.062956
vt -2.011288 -1.500000
vt 0.000000 -1.500000
vt 2.011288 -1.500000

vn 0.402537 -0.264615 0.876323
vn -0.402537 -0.264615 0.876323
vn -0.402537 0.264615 0.876323
vn 0.402537 0.264615 0.876323
vn 0.000000 0.761634 0.648008
vn 0.440684 0.873287 -0.207768
vn 0.930521 0.337754 0.141608
vn 0.482832 0.337754 -0.807957
vn 0.482832 -0.337754 -0.807957
vn 0.930521 -0.337754 0.141608
vn -0.000000 -0.761634 0.648008
vn 0.440684 -0.873287 -0.207768
vn -0.440684 0.873287 -0.207768
vn -0.482832 0.337754 -0.807958
vn -0.930521 0.337755 0.141607
vn -0.930521 -0.337754 0.141608
vn -0.482832 -0.337754 -0.807958
vn -0.440685 -0.873287 -0.207768

usemtl default
f 4/1/3 1/1/2 2/1/1
f 2/1/1 3/1/4 4/1/3
f 7/1/6 5/1/5 3/1/4
f 3/1/4 6/1/7 7/1/6
f 10/1/9 8/1/8 6/1/7
f 6/1/7 9/1/10 10/1/9
f 9/1/10 2/1/1 11/1/11
f 11/1/11 12/1/12 9/1/10
f 14/1/13 7/1/6 8/1/8
f 8/1/8 13/1/14 14/1/13
f 17/1/16 15/1/15 13/1/14
f 13/1/14 16/1/17 17/1/16
f 16/1/17 10/1/9 12/1/12
f 12/1/12 18/1/18 16/1/17
f 15/1/15 4/1/3 5/1/5
f 5/1/5 14/1/13 15/1/15
f 18/1/18 11/1/11 1/1/2
f 1/1/2 17/1/16 18/1/18
f 11/1/11 2/1/1 1/1/2
f 5/1/5 4/1/3 3/1/4
f 8/1/8 7/1/6 6/1/7
f 12/1/12 10/1/9 9/1/10
f 15/1/15 14/1/13 13/1/14
f 18/1/18 17/1/16 16/1/17
f 6/4/7 3/3/4 2/2/1
f 2/2/1 9/5/10 6/4/7
f 13/8/14 8/7/8 10/6/9
f 10/6/9 16/9/17 13/8/14
f 4/12/3 15/11/15 17/10/16
f 17/10/16 1/13/2 4/12/3
f 12/16/12 11/15/11 18/14/18
f 14/14/13 5/15/5 7/16/6

g 押し出し
v -0.006617 -0.484000 0.369486
v 0.006617 -0.484000 0.369486
v 0.006617 -0.316000 0.369486
v -0.006617 -0.316000 0.369486
v 0.000000 -0.300000 0.361165
v 0.274841 -0.316000 0.044283
v 0.259399 -0.300000 0.046660
v 0.271058 -0.316000 0.036260
v 0.274841 -0.484000 0.044283
v 0.271058 -0.484000 0.036260
v 0.000000 -0.500000 0.361165
v 0.259399 -0.500000 0.046660
v -0.271058 -0.316000 0.036260
v -0.259399 -0.300000 0.046660
v -0.274841 -0.316000 0.044283
v -0.271058 -0.484000 0.036260
v -0.274841 -0.484000 0.044283
v -0.259399 -0.500000 0.046660

vt 0.000000 1.000000
vt 0.080000 0.920000
vt 0.920000 0.920000
vt 0.920000 -2.322664
vt 0.080000 -2.322664
vt 0.080000 -2.482664
vt 0.920000 -2.482665
vt 0.920000 -6.652791
vt 0.080000 -6.652791
vt 0.080000 -6.812791
vt 0.920000 -6.812791
vt 0.920000 -10.055456
vt 0.080000 -10.055455
vt -1.995380 -1.500000
vt 0.000000 -1.500000
vt 1.995381 -1.500000

vn 0.402537 -0.264614 0.876324
vn -0.402537 -0.264614 0.876324
vn -0.402537 0.264614 0.876324
vn 0.402537 0.264614 0.876324
vn 0.000000 0.761633 0.648009
vn 0.440685 0.873286 -0.207768
vn 0.930521 0.337754 0.141608
vn 0.482832 0.337754 -0.807957
vn 0.482832 -0.337754 -0.807957
vn 0.930521 -0.337754 0.141608
vn 0.000000 -0.761633 0.648009
vn 0.440685 -0.873286 -0.207768
vn -0.440685 0.873286 -0.207768
vn -0.482832 0.337754 -0.807957
vn -0.930521 0.337754 0.141608
vn -0.930521 -0.337754 0.141608
vn -0.482832 -0.337754 -0.807957
vn -0.440685 -0.873286 -0.207768

usemtl default
f 22/17/21 19/17/20 20/17/19
f 20/17/19 21/17/22 22/17/21
f 25/17/24 23/17/23 21/17/22
f 21/17/22 24/17/25 25/17/24
f 28/17/27 26/17/26 24/17/25
f 24/17/25 27/17/28 28/17/27
f 27/17/28 20/17/19 29/17/29
f 29/17/29 30/17/30 27/17/28
f 32/17/31 25/17/24 26/17/26
f 26/17/26 31/17/32 32/17/31
f 35/17/34 33/17/33 31/17/32
f 31/17/32 34/17/35 35/17/34
f 34/17/35 28/17/27 30/17/30
f 30/17/30 36/17/36 34/17/35
f 33/17/33 22/17/21 23/17/23
f 23/17/23 32/17/31 33/17/33
f 36/17/36 29/17/29 19/17/20
f 19/17/20 35/17/34 36/17/36
f 29/17/29 20/17/19 19/17/20
f 23/17/23 22/17/21 21/17/22
f 26/17/26 25/17/24 24/17/25
f 30/17/30 28/17/27 27/17/28
f 33/17/33 32/17/31 31/17/32
f 36/17/36 35/17/34 34/17/35
f 24/20/25 21/19/22 20/18/19
f 20/18/19 27/21/28 24/20/25
f 31/24/32 26/23/26 28/22/27
f 28/22/27 34/25/35 31/24/32
f 22/28/21 33/27/33 35/26/34
f 35/26/34 19/29/20 22/28/21
f 30/32/30 29/31/29 36/30/36
f 32/30/31 23/31/23 25/32/24

