# WaveFront *.obj file (generated by Cheetah3D)

mtllib oneway-2.mtl

g ブーリアン
v 0.064488 -0.300000 0.450000
v 0.073478 -0.310670 0.450000
v 0.076705 -0.314500 0.450000
v -0.076705 -0.376682 0.450000
v -0.076705 -0.314500 0.450000
v -0.064488 -0.300000 0.450000
v -0.076705 -0.382769 0.450000
v 0.076705 -0.485500 0.450000
v 0.075738 -0.486648 0.450000
v 0.109851 -0.500000 -0.450000
v 0.114949 -0.493949 -0.450000
v -0.109851 -0.300000 -0.450000
v -0.114949 -0.306051 -0.450000
v 0.116771 -0.308213 -0.450000
v 0.109851 -0.300000 -0.450000
v -0.122068 -0.314500 -0.450000
v 0.064488 -0.500000 0.450000
v 0.027364 -0.500000 0.450000
v 0.122068 -0.485500 -0.450000
v 0.013606 -0.500000 -0.450000
v -0.122068 -0.415150 -0.450000
v -0.122068 -0.420114 -0.450000
v 0.122068 -0.314500 -0.450000
v -0.064488 -0.500000 0.450000
v -0.076705 -0.485500 0.450000
v -0.076705 -0.473583 0.450000
v -0.050116 -0.500000 0.450000
v -0.081106 -0.500000 -0.450000
v -0.122068 -0.468565 -0.450000
v -0.122068 -0.485500 -0.450000
v -0.109851 -0.500000 -0.450000
v 0.005997 -0.485500 -0.309271
v -0.005997 -0.485500 -0.309271
v -0.005997 -0.314500 -0.309271
v 0.005997 -0.314500 -0.309271
v 0.000000 -0.500000 -0.316813
v 0.000000 -0.300000 -0.316813
v -0.116771 -0.491787 -0.450000
v 0.122068 -0.411842 -0.450000
v -0.122068 -0.388158 -0.450000
v 0.005997 -0.485500 0.113229
v -0.005997 -0.485500 0.113229
v -0.005997 -0.314500 0.113229
v 0.005997 -0.314500 0.113229
v 0.000000 -0.300000 0.105688
v 0.261467 -0.300000 -0.211325
v 0.275461 -0.314500 -0.213479
v 0.272033 -0.314500 -0.220750
v 0.272033 -0.485500 -0.220750
v 0.275461 -0.485500 -0.213479
v 0.000000 -0.500000 0.105688
v 0.261467 -0.500000 -0.211325
v -0.261467 -0.300000 -0.211325
v -0.272033 -0.314500 -0.220750
v -0.275461 -0.314500 -0.213479
v -0.275461 -0.485500 -0.213479
v -0.272033 -0.485500 -0.220750
v -0.261467 -0.500000 -0.211325
v 0.261467 -0.300000 0.211175
v 0.275461 -0.314500 0.209021
v 0.272033 -0.314500 0.201750
v 0.272033 -0.485500 0.201750
v 0.275461 -0.485500 0.209021
v 0.067481 -0.496448 0.450000
v -0.261467 -0.300000 0.211175
v -0.272033 -0.314500 0.201750
v -0.275461 -0.314500 0.209021
v -0.275461 -0.485500 0.209021
v -0.272033 -0.485500 0.201750
v 0.261467 -0.500000 0.211175
v -0.261467 -0.500000 0.211175
v -0.067481 -0.303552 0.450000
v -0.073478 -0.489330 0.450000
v 0.076705 -0.440629 0.450000
v -0.076705 -0.359371 0.450000

vt 0.414772 0.205885
vt 0.414772 0.225119
vt 0.571653 0.291086
vt 0.414772 0.274975
vt 0.425021 0.287140
vt 0.581642 0.279231
vt 0.414772 0.199121
vt 0.585228 0.274975
vt 0.585228 0.134832
vt 0.584153 0.083700
vt 0.370255 0.281961
vt 0.377943 0.291086
vt 0.622057 0.291086
vt 0.574979 0.072811
vt 0.530404 0.068864
vt 0.377943 0.068864
vt 0.372279 0.075587
vt 0.484883 0.068864
vt 0.635632 0.163142
vt 0.635631 0.157627
vt 0.364369 0.274975
vt 0.428347 0.068864
vt 0.418358 0.080720
vt 0.414772 0.098216
vt 0.444316 0.068864
vt 0.627721 0.284363
vt 0.590118 0.068864
vt 0.364369 0.084975
vt 0.364369 0.166818
vt 0.635631 0.103792
vt 0.635631 0.084975
vt 0.629745 0.077989
vt 0.000000 1.000000
vt 0.072500 -0.475734
vt 0.072500 0.927500
vt 0.440790 -0.475734
vt 0.927500 -8.659721
vt 0.927500 -10.062956
vt 0.559210 -8.659721
vt 0.845009 -1.500000
vt 0.104660 -1.500000
vt 0.000000 -1.500000
vt -0.000000 -1.500000
vt -0.845009 -1.500000
vt 0.927500 0.927500
vt 0.927500 -2.330165
vt 0.072500 -2.330165
vt 0.072500 -2.475165
vt 0.927500 -2.475164
vt 0.927500 -6.660292
vt 0.072500 -6.660291
vt 0.072500 -6.805292
vt 0.927500 -6.805291
vt 0.072500 -10.062956
vt -2.011288 -1.500000
vt 2.011288 -1.500000
vt 0.927500 0.072679
vt 0.296854 0.072679
vt 0.703146 -9.208136
vt 0.616593 -9.208136
vt 0.927500 -0.475734
vt 0.072500 -8.659721
vt 0.157175 -8.659721
vt 0.072500 0.072679
vt 0.927500 -9.208136
vt -0.496062 -1.500000
vt -0.385505 -1.500000
vt 0.496062 -1.500000
vt 0.428347 0.291086
vt 0.585228 0.084975
vt 0.571653 0.068864
vt 0.414772 0.084975
vt 0.635632 0.274975
vt 0.635632 0.193133
vt 0.622057 0.068864
vt -0.623891 -1.500000
vt 0.072500 -9.208136
vt 0.424249 -8.659721
vt 0.399430 -8.659721
vt 0.210489 -1.500000

vn 0.000000 0.000000 1.000000
vn 0.000000 0.000000 -1.000000
vn 0.402537 -0.264615 0.876323
vn -0.402537 -0.264615 0.876323
vn -0.402537 0.264615 0.876323
vn 0.402537 0.264615 0.876323
vn 0.688429 0.328656 0.646569
vn 0.519005 0.603426 0.605401
vn 0.201434 -0.916626 0.345284
vn -0.000000 -0.761634 0.648008
vn 0.506510 -0.694250 0.511336
vn -0.201434 0.916626 0.345284
vn 0.000000 0.761634 0.648008
vn -0.506510 0.694250 0.511336
vn -0.688429 -0.328656 0.646569
vn -0.519006 -0.603426 0.605401
vn 0.688429 -0.328656 0.646569
vn 0.728702 -0.024497 0.684393
vn -0.688429 0.328656 0.646569
vn -0.728702 0.024497 0.684393
vn 0.025462 -0.935505 0.352396
vn 0.201434 0.916626 0.345285
vn 0.440685 0.873287 -0.207768
vn 0.930521 0.337754 0.141608
vn 0.482832 0.337755 -0.807957
vn 0.482832 -0.337754 -0.807957
vn 0.930521 -0.337755 0.141608
vn 0.440684 -0.873287 -0.207768
vn -0.440684 0.873287 -0.207768
vn -0.482832 0.337754 -0.807958
vn -0.930521 0.337755 0.141608
vn -0.930521 -0.337754 0.141608
vn -0.482832 -0.337754 -0.807957
vn -0.440684 -0.873287 -0.207768
vn 0.112625 0.863470 0.491665
vn 0.475857 0.454209 0.753163
vn 0.290213 -0.750813 0.593344
vn 0.553902 -0.358254 0.751563
vn -0.575839 0.306472 0.757947
vn -0.290213 0.750813 0.593344
vn -0.112625 -0.863470 0.491665
vn -0.475857 -0.454209 0.753163
vn 0.575839 0.306473 0.757948
vn 0.599489 -0.134057 0.789077
vn -0.599489 0.134057 0.789077
vn -0.603270 0.074464 0.794053
vn -0.201435 -0.916626 0.345284
vn -0.702050 -0.269011 0.659362
vn 0.112626 -0.863470 0.491665
vn -0.112626 0.863470 0.491665
vn -0.575839 -0.306473 0.757947
vn 0.575839 -0.306472 0.757947
vn -0.087635 -0.865656 0.492909
vn -0.149298 -0.925320 0.348559
vn -0.726901 -0.074389 0.682702
vn -0.725793 -0.092534 0.681661
vn 0.048040 -0.867996 0.494242

usemtl default
f 1/3/1 75/2/1 4/1/1
f 1/3/1 72/5/1 5/4/1
f 4/1/1 7/7/1 2/6/1
f 4/1/1 2/6/1 1/3/1
f 9/10/1 74/9/1 3/8/1
f 9/10/1 3/8/1 2/6/1
f 12/13/2 15/12/2 14/11/2
f 18/15/1 64/14/1 9/10/1
f 18/15/1 9/10/1 2/6/1
f 20/18/2 11/17/2 10/16/2
f 22/20/2 21/19/2 14/11/2
f 22/20/2 14/11/2 23/21/2
f 26/24/1 73/23/1 24/22/1
f 26/24/1 24/22/1 27/25/1
f 27/25/1 18/15/1 2/6/1
f 21/19/2 13/26/2 12/13/2
f 21/19/2 12/13/2 14/11/2
f 7/7/1 26/24/1 27/25/1
f 7/7/1 27/25/1 2/6/1
f 20/18/2 28/27/2 23/21/2
f 20/18/2 39/29/2 19/28/2
f 30/31/2 29/30/2 28/27/2
f 28/27/2 38/32/2 30/31/2
f 29/30/2 22/20/2 23/21/2
f 29/30/2 23/21/2 28/27/2
f 34/33/5 33/33/4 32/33/3
f 32/33/3 35/33/6 34/33/5
f 14/33/8 35/33/6 23/33/7
f 11/33/11 36/33/10 10/33/9
f 13/33/14 37/33/13 12/33/12
f 38/33/16 33/33/4 30/33/15
f 36/33/10 32/33/3 33/33/4
f 37/33/13 34/33/5 35/33/6
f 39/36/18 32/35/3 19/34/17
f 40/39/20 34/38/5 16/37/19
f 36/42/10 20/41/21 10/40/9
f 12/44/12 37/43/13 15/40/22
f 43/33/5 42/33/4 41/33/3
f 41/33/3 44/33/6 43/33/5
f 46/33/23 45/33/13 44/33/6
f 44/33/6 47/33/24 46/33/23
f 49/33/26 48/33/25 47/33/24
f 47/33/24 50/33/27 49/33/26
f 50/33/27 41/33/3 51/33/10
f 51/33/10 52/33/28 50/33/27
f 53/33/29 46/33/23 48/33/25
f 48/33/25 54/33/30 53/33/29
f 56/33/32 55/33/31 54/33/30
f 54/33/30 57/33/33 56/33/32
f 57/33/33 49/33/26 52/33/28
f 52/33/28 58/33/34 57/33/33
f 55/33/31 43/33/5 45/33/13
f 45/33/13 53/33/29 55/33/31
f 58/33/34 51/33/10 42/33/4
f 42/33/4 56/33/32 58/33/34
f 51/33/10 41/33/3 42/33/4
f 45/33/13 43/33/5 44/33/6
f 48/33/25 46/33/23 47/33/24
f 52/33/28 49/33/26 50/33/27
f 55/33/31 53/33/29 54/33/30
f 58/33/34 56/33/32 57/33/33
f 47/46/24 44/45/6 41/35/3
f 41/35/3 50/47/27 47/46/24
f 54/50/30 48/49/25 49/48/26
f 49/48/26 57/51/33 54/50/30
f 43/38/5 55/53/31 56/52/32
f 56/52/32 42/54/4 43/38/5
f 52/56/28 51/42/10 58/55/34
f 53/55/29 45/43/13 46/56/23
f 2/33/36 59/33/23 1/33/35
f 62/33/26 61/33/25 60/33/24
f 60/33/24 63/33/27 62/33/26
f 63/33/27 9/33/38 64/33/37
f 65/33/29 59/33/23 61/33/25
f 61/33/25 66/33/30 65/33/29
f 68/33/32 67/33/31 66/33/30
f 66/33/30 69/33/33 68/33/32
f 69/33/33 62/33/26 70/33/28
f 70/33/28 71/33/34 69/33/33
f 72/33/40 67/33/31 5/33/39
f 73/33/42 71/33/34 24/33/41
f 61/33/25 59/33/23 60/33/24
f 70/33/28 62/33/26 63/33/27
f 67/33/31 65/33/29 66/33/30
f 71/33/34 68/33/32 69/33/33
f 74/58/44 60/46/24 3/57/43
f 66/50/30 61/49/25 62/48/26
f 62/48/26 69/51/33 66/50/30
f 68/52/32 4/60/46 75/59/45
f 14/33/8 15/33/22 37/33/13
f 14/33/8 37/33/13 35/33/6
f 11/33/11 19/33/17 32/33/3
f 11/33/11 32/33/3 36/33/10
f 13/33/14 16/33/19 34/33/5
f 13/33/14 34/33/5 37/33/13
f 38/33/16 31/33/47 36/33/10
f 38/33/16 36/33/10 33/33/4
f 39/36/18 23/61/7 35/45/6
f 39/36/18 35/45/6 32/35/3
f 33/54/4 29/63/48 30/62/15
f 40/39/20 33/54/4 34/38/5
f 2/33/36 3/33/43 60/33/24
f 2/33/36 60/33/24 59/33/23
f 64/33/37 17/33/49 70/33/28
f 64/33/37 70/33/28 63/33/27
f 72/33/40 6/33/50 65/33/29
f 72/33/40 65/33/29 67/33/31
f 73/33/42 25/33/51 68/33/32
f 73/33/42 68/33/32 71/33/34
f 74/58/44 8/64/52 63/47/27
f 74/58/44 63/47/27 60/46/24
f 75/59/45 5/65/39 67/53/31
f 75/59/45 67/53/31 68/52/32
f 71/55/34 27/67/53 24/66/41
f 17/68/49 71/55/34 70/56/28
f 6/66/50 1/68/35 59/56/23
f 6/66/50 59/56/23 65/55/29
f 1/3/1 5/4/1 75/2/1
f 1/3/1 6/69/1 72/5/1
f 9/10/1 8/70/1 74/9/1
f 18/15/1 17/71/1 64/14/1
f 20/18/2 19/28/2 11/17/2
f 26/24/1 25/72/1 73/23/1
f 13/26/2 40/74/2 16/73/2
f 20/18/2 23/21/2 39/29/2
f 28/27/2 31/75/2 38/32/2
f 36/42/10 28/76/54 20/41/21
f 63/33/27 8/33/52 9/33/38
f 68/52/32 25/77/51 4/60/46
f 33/54/4 40/39/20 21/78/55
f 33/54/4 21/78/55 22/79/56
f 33/54/4 22/79/56 29/63/48
f 71/55/34 17/68/49 18/80/57
f 71/55/34 18/80/57 27/67/53
f 13/26/2 21/19/2 40/74/2
f 36/42/10 31/44/47 28/76/54

