# WaveFront *.obj file (generated by Cheetah3D)

mtllib oneway-1.mtl

g ブーリアン
v 0.005997 -0.485500 -0.050271
v -0.005997 -0.485500 -0.050271
v -0.005997 -0.314500 -0.050271
v 0.005997 -0.314500 -0.050271
v 0.000000 -0.300000 -0.057812
v 0.261467 -0.300000 -0.374825
v 0.275461 -0.314500 -0.376979
v 0.272033 -0.314500 -0.384250
v 0.272033 -0.485500 -0.384250
v 0.275461 -0.485500 -0.376979
v 0.000000 -0.500000 -0.057812
v 0.261467 -0.500000 -0.374825
v -0.261467 -0.300000 -0.374825
v -0.272033 -0.314500 -0.384250
v -0.275461 -0.314500 -0.376979
v -0.275461 -0.485500 -0.376979
v -0.272033 -0.485500 -0.384250
v -0.261467 -0.500000 -0.374825
v 0.005997 -0.485500 0.372229
v -0.005997 -0.485500 0.372229
v -0.005997 -0.314500 0.372229
v 0.005997 -0.314500 0.372229
v 0.000000 -0.300000 0.364688
v 0.261467 -0.300000 0.047675
v 0.275461 -0.314500 0.045521
v 0.272033 -0.314500 0.038250
v 0.272033 -0.485500 0.038250
v 0.275461 -0.485500 0.045521
v 0.000000 -0.500000 0.364688
v 0.261467 -0.500000 0.047675
v -0.261467 -0.300000 0.047675
v -0.272033 -0.314500 0.038250
v -0.275461 -0.314500 0.045521
v -0.275461 -0.485500 0.045521
v -0.272033 -0.485500 0.038250
v -0.261467 -0.500000 0.047675

vt 0.000000 1.000000
vt 0.072500 0.927500
vt 0.927500 0.927500
vt 0.927500 -2.330165
vt 0.072500 -2.330165
vt 0.072500 -2.475165
vt 0.927500 -2.475164
vt 0.927500 -6.660292
vt 0.072500 -6.660291
vt 0.072500 -6.805292
vt 0.927500 -6.805291
vt 0.927500 -10.062956
vt 0.072500 -10.062956
vt -2.011288 -1.500000
vt 0.000000 -1.500000
vt 2.011288 -1.500000

vn 0.402537 -0.264615 0.876323
vn -0.402537 -0.264615 0.876323
vn -0.402537 0.264615 0.876323
vn 0.402537 0.264615 0.876323
vn 0.000000 0.761634 0.648008
vn 0.440685 0.873287 -0.207768
vn 0.930521 0.337754 0.141608
vn 0.482832 0.337755 -0.807957
vn 0.482832 -0.337754 -0.807957
vn 0.930521 -0.337755 0.141608
vn -0.000000 -0.761634 0.648008
vn 0.440684 -0.873287 -0.207768
vn -0.440684 0.873287 -0.207768
vn -0.482832 0.337754 -0.807958
vn -0.930521 0.337755 0.141608
vn -0.930521 -0.337754 0.141608
vn -0.482832 -0.337754 -0.807957
vn -0.440684 -0.873287 -0.207768

usemtl default
f 3/1/3 2/1/2 1/1/1
f 1/1/1 4/1/4 3/1/3
f 6/1/6 5/1/5 4/1/4
f 4/1/4 7/1/7 6/1/6
f 9/1/9 8/1/8 7/1/7
f 7/1/7 10/1/10 9/1/9
f 10/1/10 1/1/1 11/1/11
f 11/1/11 12/1/12 10/1/10
f 13/1/13 6/1/6 8/1/8
f 8/1/8 14/1/14 13/1/13
f 16/1/16 15/1/15 14/1/14
f 14/1/14 17/1/17 16/1/16
f 17/1/17 9/1/9 12/1/12
f 12/1/12 18/1/18 17/1/17
f 15/1/15 3/1/3 5/1/5
f 5/1/5 13/1/13 15/1/15
f 18/1/18 11/1/11 2/1/2
f 2/1/2 16/1/16 18/1/18
f 11/1/11 1/1/1 2/1/2
f 5/1/5 3/1/3 4/1/4
f 8/1/8 6/1/6 7/1/7
f 12/1/12 9/1/9 10/1/10
f 15/1/15 13/1/13 14/1/14
f 18/1/18 16/1/16 17/1/17
f 7/4/7 4/3/4 1/2/1
f 1/2/1 10/5/10 7/4/7
f 14/8/14 8/7/8 9/6/9
f 9/6/9 17/9/17 14/8/14
f 3/12/3 15/11/15 16/10/16
f 16/10/16 2/13/2 3/12/3
f 12/16/12 11/15/11 18/14/18
f 13/14/13 5/15/5 6/16/6
f 21/1/3 20/1/2 19/1/1
f 19/1/1 22/1/4 21/1/3
f 24/1/6 23/1/5 22/1/4
f 22/1/4 25/1/7 24/1/6
f 27/1/9 26/1/8 25/1/7
f 25/1/7 28/1/10 27/1/9
f 28/1/10 19/1/1 29/1/11
f 29/1/11 30/1/12 28/1/10
f 31/1/13 24/1/6 26/1/8
f 26/1/8 32/1/14 31/1/13
f 34/1/16 33/1/15 32/1/14
f 32/1/14 35/1/17 34/1/16
f 35/1/17 27/1/9 30/1/12
f 30/1/12 36/1/18 35/1/17
f 33/1/15 21/1/3 23/1/5
f 23/1/5 31/1/13 33/1/15
f 36/1/18 29/1/11 20/1/2
f 20/1/2 34/1/16 36/1/18
f 29/1/11 19/1/1 20/1/2
f 23/1/5 21/1/3 22/1/4
f 26/1/8 24/1/6 25/1/7
f 30/1/12 27/1/9 28/1/10
f 33/1/15 31/1/13 32/1/14
f 36/1/18 34/1/16 35/1/17
f 25/4/7 22/3/4 19/2/1
f 19/2/1 28/5/10 25/4/7
f 32/8/14 26/7/8 27/6/9
f 27/6/9 35/9/17 32/8/14
f 21/12/3 33/11/15 34/10/16
f 34/10/16 20/13/2 21/12/3
f 30/16/12 29/15/11 36/14/18
f 31/14/13 23/15/5 24/16/6

