# WaveFront *.obj file (generated by Cheetah3D)

mtllib stage_cube.mtl

g 立方体
v -0.475000 -0.352562 0.402562
v -0.475000 -0.352562 0.438781
v -0.465945 -0.352562 0.465945
v -0.438781 -0.352562 0.475000
v -0.402562 -0.352562 0.475000
v -0.402562 0.050000 0.475000
v -0.438781 0.050000 0.475000
v -0.465945 0.050000 0.465945
v -0.475000 0.050000 0.438781
v -0.475000 0.050000 0.402562
v -0.402562 -0.388781 0.475000
v -0.402562 -0.415945 0.465945
v -0.402562 -0.425000 0.438781
v -0.402562 -0.425000 0.402562
v 0.000000 -0.425000 0.402562
v 0.000000 -0.425000 0.438781
v 0.000000 -0.415945 0.465945
v 0.000000 -0.388781 0.475000
v 0.000000 -0.352562 0.475000
v -0.402562 0.525000 0.402562
v -0.402562 0.525000 0.438781
v -0.402562 0.515945 0.465945
v -0.402562 0.488781 0.475000
v -0.402562 0.452563 0.475000
v 0.000000 0.452563 0.475000
v 0.000000 0.488781 0.475000
v 0.000000 0.515945 0.465945
v 0.000000 0.525000 0.438781
v 0.000000 0.525000 0.402562
v -0.438781 0.452563 0.475000
v -0.465945 0.452563 0.465945
v -0.475000 0.452563 0.438781
v -0.475000 0.452563 0.402562
v 0.475000 0.452563 0.402562
v 0.475000 0.452563 0.438781
v 0.465945 0.452563 0.465945
v 0.438781 0.452563 0.475000
v 0.402562 0.452563 0.475000
v 0.402562 0.050000 0.475000
v 0.438781 0.050000 0.475000
v 0.465945 0.050000 0.465945
v 0.475000 0.050000 0.438781
v 0.475000 0.050000 0.402562
v 0.402562 0.488781 0.475000
v 0.402562 0.515945 0.465945
v 0.402562 0.525000 0.438781
v 0.402562 0.525000 0.402562
v 0.402562 -0.425000 0.402562
v 0.402562 -0.425000 0.438781
v 0.402562 -0.415945 0.465945
v 0.402562 -0.388781 0.475000
v 0.402562 -0.352562 0.475000
v 0.438781 -0.352562 0.475000
v 0.465945 -0.352562 0.465945
v 0.475000 -0.352562 0.438781
v 0.475000 -0.352562 0.402562
v 0.475000 -0.352562 -0.402562
v 0.475000 -0.352562 -0.438781
v 0.465945 -0.352562 -0.465945
v 0.438781 -0.352562 -0.475000
v 0.402562 -0.352562 -0.475000
v 0.402562 0.050000 -0.475000
v 0.438781 0.050000 -0.475000
v 0.465945 0.050000 -0.465945
v 0.475000 0.050000 -0.438781
v 0.475000 0.050000 -0.402562
v 0.402562 -0.388781 -0.475000
v 0.402562 -0.415945 -0.465945
v 0.402562 -0.425000 -0.438781
v 0.402562 -0.425000 -0.402562
v 0.000000 -0.425000 -0.402562
v 0.000000 -0.425000 -0.438781
v 0.000000 -0.415945 -0.465945
v 0.000000 -0.388781 -0.475000
v 0.000000 -0.352562 -0.475000
v 0.402562 0.525000 -0.402562
v 0.402562 0.525000 -0.438781
v 0.402562 0.515945 -0.465945
v 0.402562 0.488781 -0.475000
v 0.402562 0.452563 -0.475000
v 0.000000 0.452563 -0.475000
v 0.000000 0.488781 -0.475000
v 0.000000 0.515945 -0.465945
v 0.000000 0.525000 -0.438781
v 0.000000 0.525000 -0.402562
v 0.438781 0.452563 -0.475000
v 0.465945 0.452563 -0.465945
v 0.475000 0.452563 -0.438781
v 0.475000 0.452563 -0.402562
v -0.475000 0.452563 -0.402562
v -0.475000 0.452563 -0.438781
v -0.465945 0.452563 -0.465945
v -0.438781 0.452563 -0.475000
v -0.402562 0.452563 -0.475000
v -0.402562 0.050000 -0.475000
v -0.438781 0.050000 -0.475000
v -0.465945 0.050000 -0.465945
v -0.475000 0.050000 -0.438781
v -0.475000 0.050000 -0.402562
v -0.402562 0.488781 -0.475000
v -0.402562 0.515945 -0.465945
v -0.402562 0.525000 -0.438781
v -0.402562 0.525000 -0.402562
v -0.402562 -0.425000 -0.402562
v -0.402562 -0.425000 -0.438781
v -0.402562 -0.415945 -0.465945
v -0.402562 -0.388781 -0.475000
v -0.402562 -0.352562 -0.475000
v -0.438781 -0.352562 -0.475000
v -0.465945 -0.352562 -0.465945
v -0.475000 -0.352562 -0.438781
v -0.475000 -0.352562 -0.402562
v -0.475000 -0.388781 -0.402562
v -0.465945 -0.415945 -0.402562
v -0.438781 -0.425000 -0.402562
v -0.402562 -0.425000 0.000000
v -0.438781 -0.425000 0.000000
v -0.465945 -0.415945 0.000000
v -0.475000 -0.388781 0.000000
v -0.475000 -0.352562 0.000000
v -0.438781 0.525000 -0.402562
v -0.465945 0.515945 -0.402562
v -0.475000 0.488781 -0.402562
v -0.475000 0.452563 0.000000
v -0.475000 0.488781 0.000000
v -0.465945 0.515945 0.000000
v -0.438781 0.525000 0.000000
v -0.402562 0.525000 0.000000
v -0.475000 0.488781 0.402562
v -0.465945 0.515945 0.402562
v -0.438781 0.525000 0.402562
v -0.438781 -0.425000 0.402562
v -0.465945 -0.415945 0.402562
v -0.475000 -0.388781 0.402562
v 0.475000 -0.388781 0.402562
v 0.465945 -0.415945 0.402562
v 0.438781 -0.425000 0.402562
v 0.402562 -0.425000 0.000000
v 0.438781 -0.425000 0.000000
v 0.465945 -0.415945 0.000000
v 0.475000 -0.388781 0.000000
v 0.475000 -0.352562 0.000000
v 0.438781 0.525000 0.402562
v 0.465945 0.515945 0.402562
v 0.475000 0.488781 0.402562
v 0.475000 0.452563 0.000000
v 0.475000 0.488781 0.000000
v 0.465945 0.515945 0.000000
v 0.438781 0.525000 0.000000
v 0.402562 0.525000 0.000000
v 0.475000 0.488781 -0.402562
v 0.465945 0.515945 -0.402562
v 0.438781 0.525000 -0.402562
v 0.438781 -0.425000 -0.402562
v 0.465945 -0.415945 -0.402562
v 0.475000 -0.388781 -0.402562
v -0.458903 -0.408903 0.458903
v -0.465945 -0.388781 0.465945
v -0.465945 -0.415945 0.438781
v -0.475000 -0.388781 0.438781
v -0.438781 -0.415945 0.465945
v -0.438781 -0.388781 0.475000
v -0.438781 -0.425000 0.438781
v -0.458903 0.508903 0.458903
v -0.438781 0.515945 0.465945
v -0.465945 0.515945 0.438781
v -0.438781 0.525000 0.438781
v -0.465945 0.488781 0.465945
v -0.438781 0.488781 0.475000
v -0.475000 0.488781 0.438781
v 0.458903 0.508903 0.458903
v 0.465945 0.488781 0.465945
v 0.465945 0.515945 0.438781
v 0.475000 0.488781 0.438781
v 0.438781 0.515945 0.465945
v 0.438781 0.488781 0.475000
v 0.438781 0.525000 0.438781
v 0.458903 -0.408903 0.458903
v 0.438781 -0.415945 0.465945
v 0.465945 -0.415945 0.438781
v 0.438781 -0.425000 0.438781
v 0.465945 -0.388781 0.465945
v 0.438781 -0.388781 0.475000
v 0.475000 -0.388781 0.438781
v 0.458903 -0.408903 -0.458903
v 0.465945 -0.388781 -0.465945
v 0.465945 -0.415945 -0.438781
v 0.475000 -0.388781 -0.438781
v 0.438781 -0.415945 -0.465945
v 0.438781 -0.388781 -0.475000
v 0.438781 -0.425000 -0.438781
v 0.458903 0.508903 -0.458903
v 0.438781 0.515945 -0.465945
v 0.465945 0.515945 -0.438781
v 0.438781 0.525000 -0.438781
v 0.465945 0.488781 -0.465945
v 0.438781 0.488781 -0.475000
v 0.475000 0.488781 -0.438781
v -0.458903 0.508903 -0.458903
v -0.465945 0.488781 -0.465945
v -0.465945 0.515945 -0.438781
v -0.475000 0.488781 -0.438781
v -0.438781 0.515945 -0.465945
v -0.438781 0.488781 -0.475000
v -0.438781 0.525000 -0.438781
v -0.458903 -0.408903 -0.458903
v -0.438781 -0.415945 -0.465945
v -0.465945 -0.415945 -0.438781
v -0.438781 -0.425000 -0.438781
v -0.465945 -0.388781 -0.465945
v -0.438781 -0.388781 -0.475000
v -0.475000 -0.388781 -0.438781
v 0.000000 0.050000 0.475000
v 0.000000 0.050000 -0.475000
v -0.475000 0.050000 0.000000
v 0.475000 0.050000 0.000000
v 0.000000 0.525000 0.000000
v 0.000000 -0.425000 0.000000

vt 0.000000 1.000000
vt 0.076250 0.076250
vt 0.076250 0.500000
vt 0.500000 0.500000
vt 0.500000 0.076250
vt 0.076250 0.923750
vt 0.500000 0.923750
vt 0.923750 0.923750
vt 0.923750 0.500000
vt 0.923750 0.076250

vn 0.000000 0.000000 1.000000
vn -0.160183 0.000000 0.987087
vn -0.707107 0.000000 0.707107
vn -0.987087 0.000000 0.160183
vn -1.000000 0.000000 0.000000
vn 0.000000 -1.000000 0.000000
vn 0.000000 -0.987087 0.160183
vn 0.000000 -0.707107 0.707107
vn 0.000000 -0.160183 0.987087
vn 0.000000 0.160183 0.987087
vn -0.000000 0.707107 0.707107
vn -0.000000 0.987087 0.160183
vn -0.000000 1.000000 -0.000000
vn 0.160183 0.000000 0.987087
vn 0.707107 0.000000 0.707107
vn 0.987087 0.000000 0.160183
vn 1.000000 0.000000 0.000000
vn 0.000000 0.000000 -1.000000
vn 0.160183 0.000000 -0.987087
vn 0.707107 0.000000 -0.707107
vn 0.987087 0.000000 -0.160183
vn 0.000000 -0.987087 -0.160183
vn 0.000000 -0.707107 -0.707107
vn 0.000000 -0.160183 -0.987087
vn -0.000000 0.160183 -0.987087
vn -0.000000 0.160183 -0.987087
vn 0.000000 0.707107 -0.707107
vn 0.000000 0.987087 -0.160183
vn 0.987087 -0.000000 -0.160183
vn -0.160183 0.000000 -0.987087
vn -0.707107 0.000000 -0.707107
vn -0.987087 0.000000 -0.160183
vn -0.000000 -0.707107 -0.707107
vn -0.000000 -0.987087 -0.160183
vn -0.160183 -0.987087 0.000000
vn -0.707107 -0.707107 -0.000000
vn -0.987087 -0.160183 -0.000000
vn -0.987087 0.160183 -0.000000
vn -0.707107 0.707107 -0.000000
vn -0.160183 0.987087 -0.000000
vn 0.160183 -0.987087 -0.000000
vn 0.707107 -0.707107 0.000000
vn 0.987087 -0.160183 0.000000
vn 0.987087 0.160183 0.000000
vn 0.707107 0.707107 0.000000
vn 0.160183 0.987087 0.000000
vn -0.693607 -0.693606 0.194473
vn -0.970285 -0.171095 0.171095
vn -0.693606 -0.194473 0.693607
vn -0.171095 -0.171095 0.970285
vn -0.194473 -0.693607 0.693606
vn -0.171095 -0.970285 0.171095
vn -0.577350 -0.577350 0.577350
vn -0.693607 0.693606 0.194474
vn -0.171095 0.970285 0.171095
vn -0.194474 0.693607 0.693606
vn -0.171095 0.171095 0.970285
vn -0.693606 0.194474 0.693607
vn -0.987087 -0.000000 0.160183
vn -0.970285 0.171095 0.171095
vn -0.577350 0.577350 0.577350
vn 0.693607 0.693606 0.194473
vn 0.970285 0.171095 0.171095
vn 0.693606 0.194473 0.693607
vn 0.171095 0.171095 0.970285
vn 0.194473 0.693607 0.693606
vn 0.000000 0.707107 0.707107
vn 0.000000 0.987087 0.160183
vn 0.171095 0.970285 0.171095
vn 0.577350 0.577350 0.577350
vn 0.693607 -0.693606 0.194474
vn 0.171095 -0.970285 0.171095
vn 0.194474 -0.693607 0.693606
vn -0.000000 -0.160183 0.987087
vn 0.171095 -0.171095 0.970285
vn 0.693606 -0.194474 0.693607
vn 0.707107 -0.000000 0.707107
vn 0.970285 -0.171095 0.171095
vn 0.577350 -0.577350 0.577350
vn 0.160183 -0.000000 0.987087
vn 0.693607 -0.693606 -0.194473
vn 0.970285 -0.171095 -0.171095
vn 0.693606 -0.194473 -0.693607
vn 0.171095 -0.171095 -0.970285
vn 0.194473 -0.693607 -0.693606
vn 0.171095 -0.970285 -0.171095
vn 0.577350 -0.577350 -0.577350
vn 0.160183 -0.987087 0.000000
vn 0.693607 0.693606 -0.194474
vn 0.707107 0.707107 -0.000000
vn 0.171095 0.970285 -0.171095
vn 0.194474 0.693607 -0.693606
vn 0.171095 0.171095 -0.970285
vn 0.693606 0.194474 -0.693607
vn 0.970285 0.171095 -0.171095
vn 0.577350 0.577350 -0.577350
vn 0.987087 0.160183 -0.000000
vn -0.693607 0.693606 -0.194473
vn -0.970285 0.171095 -0.171095
vn -0.693606 0.194473 -0.693607
vn -0.171095 0.171095 -0.970285
vn -0.194473 0.693607 -0.693606
vn -0.171095 0.970285 -0.171095
vn -0.577350 0.577350 -0.577350
vn -0.693607 -0.693606 -0.194474
vn -0.171095 -0.970285 -0.171095
vn -0.194474 -0.693607 -0.693606
vn -0.171095 -0.171095 -0.970285
vn -0.693606 -0.194474 -0.693607
vn -0.707107 -0.000000 -0.707107
vn -0.970285 -0.171095 -0.171095
vn -0.577350 -0.577350 -0.577350
vn -0.160183 -0.000000 -0.987087

usemtl default
f 7/1/2 4/1/2 5/1/1
f 5/1/1 6/1/1 7/1/2
f 8/1/3 3/1/3 4/1/2
f 4/1/2 7/1/2 8/1/3
f 9/1/4 2/1/4 3/1/3
f 3/1/3 8/1/3 9/1/4
f 10/1/5 1/1/5 2/1/4
f 2/1/4 9/1/4 10/1/5
f 16/1/7 13/1/7 14/1/6
f 14/1/6 15/1/6 16/1/7
f 17/1/8 12/1/8 13/1/7
f 13/1/7 16/1/7 17/1/8
f 18/1/9 11/1/9 12/1/8
f 12/1/8 17/1/8 18/1/9
f 19/1/1 5/1/1 11/1/9
f 11/1/9 18/1/9 19/1/1
f 26/1/10 23/1/10 24/1/1
f 24/1/1 25/1/1 26/1/10
f 27/1/11 22/1/11 23/1/10
f 23/1/10 26/1/10 27/1/11
f 28/1/12 21/1/12 22/1/11
f 22/1/11 27/1/11 28/1/12
f 29/1/13 20/1/13 21/1/12
f 21/1/12 28/1/12 29/1/13
f 9/1/4 32/1/4 33/1/5
f 33/1/5 10/1/5 9/1/4
f 8/1/3 31/1/3 32/1/4
f 32/1/4 9/1/4 8/1/3
f 7/1/2 30/1/2 31/1/3
f 31/1/3 8/1/3 7/1/2
f 6/1/1 24/1/1 30/1/2
f 30/1/2 7/1/2 6/1/1
f 40/1/14 37/1/14 38/1/1
f 38/1/1 39/1/1 40/1/14
f 41/1/15 36/1/15 37/1/14
f 37/1/14 40/1/14 41/1/15
f 42/1/16 35/1/16 36/1/15
f 36/1/15 41/1/15 42/1/16
f 43/1/17 34/1/17 35/1/16
f 35/1/16 42/1/16 43/1/17
f 28/1/12 46/1/12 47/1/13
f 47/1/13 29/1/13 28/1/12
f 27/1/11 45/1/11 46/1/12
f 46/1/12 28/1/12 27/1/11
f 26/1/10 44/1/10 45/1/11
f 45/1/11 27/1/11 26/1/10
f 25/1/1 38/1/1 44/1/10
f 44/1/10 26/1/10 25/1/1
f 18/1/9 51/1/9 52/1/1
f 52/1/1 19/1/1 18/1/9
f 17/1/8 50/1/8 51/1/9
f 51/1/9 18/1/9 17/1/8
f 16/1/7 49/1/7 50/1/8
f 50/1/8 17/1/8 16/1/7
f 15/1/6 48/1/6 49/1/7
f 49/1/7 16/1/7 15/1/6
f 42/1/16 55/1/16 56/1/17
f 56/1/17 43/1/17 42/1/16
f 41/1/15 54/1/15 55/1/16
f 55/1/16 42/1/16 41/1/15
f 40/1/14 53/1/14 54/1/15
f 54/1/15 41/1/15 40/1/14
f 39/1/1 52/1/1 53/1/14
f 53/1/14 40/1/14 39/1/1
f 63/1/19 60/1/19 61/1/18
f 61/1/18 62/1/18 63/1/19
f 64/1/20 59/1/20 60/1/19
f 60/1/19 63/1/19 64/1/20
f 65/1/21 58/1/21 59/1/20
f 59/1/20 64/1/20 65/1/21
f 66/1/17 57/1/17 58/1/21
f 58/1/21 65/1/21 66/1/17
f 72/1/22 69/1/22 70/1/6
f 70/1/6 71/1/6 72/1/22
f 73/1/23 68/1/23 69/1/22
f 69/1/22 72/1/22 73/1/23
f 74/1/24 67/1/24 68/1/23
f 68/1/23 73/1/23 74/1/24
f 75/1/18 61/1/18 67/1/24
f 67/1/24 74/1/24 75/1/18
f 82/1/26 79/1/25 80/1/18
f 80/1/18 81/1/18 82/1/26
f 83/1/27 78/1/27 79/1/25
f 79/1/25 82/1/26 83/1/27
f 84/1/28 77/1/28 78/1/27
f 78/1/27 83/1/27 84/1/28
f 85/1/13 76/1/13 77/1/28
f 77/1/28 84/1/28 85/1/13
f 65/1/21 88/1/29 89/1/17
f 89/1/17 66/1/17 65/1/21
f 64/1/20 87/1/20 88/1/29
f 88/1/29 65/1/21 64/1/20
f 63/1/19 86/1/19 87/1/20
f 87/1/20 64/1/20 63/1/19
f 62/1/18 80/1/18 86/1/19
f 86/1/19 63/1/19 62/1/18
f 96/1/30 93/1/30 94/1/18
f 94/1/18 95/1/18 96/1/30
f 97/1/31 92/1/31 93/1/30
f 93/1/30 96/1/30 97/1/31
f 98/1/32 91/1/32 92/1/31
f 92/1/31 97/1/31 98/1/32
f 99/1/5 90/1/5 91/1/32
f 91/1/32 98/1/32 99/1/5
f 84/1/28 102/1/28 103/1/13
f 103/1/13 85/1/13 84/1/28
f 83/1/27 101/1/27 102/1/28
f 102/1/28 84/1/28 83/1/27
f 82/1/26 100/1/26 101/1/27
f 101/1/27 83/1/27 82/1/26
f 81/1/18 94/1/18 100/1/26
f 100/1/26 82/1/26 81/1/18
f 74/1/24 107/1/24 108/1/18
f 108/1/18 75/1/18 74/1/24
f 73/1/23 106/1/33 107/1/24
f 107/1/24 74/1/24 73/1/23
f 72/1/22 105/1/34 106/1/33
f 106/1/33 73/1/23 72/1/22
f 71/1/6 104/1/6 105/1/34
f 105/1/34 72/1/22 71/1/6
f 98/1/32 111/1/32 112/1/5
f 112/1/5 99/1/5 98/1/32
f 97/1/31 110/1/31 111/1/32
f 111/1/32 98/1/32 97/1/31
f 96/1/30 109/1/30 110/1/31
f 110/1/31 97/1/31 96/1/30
f 95/1/18 108/1/18 109/1/30
f 109/1/30 96/1/30 95/1/18
f 117/1/35 115/1/35 104/1/6
f 104/1/6 116/1/6 117/1/35
f 118/1/36 114/1/36 115/1/35
f 115/1/35 117/1/35 118/1/36
f 119/1/37 113/1/37 114/1/36
f 114/1/36 118/1/36 119/1/37
f 120/1/5 112/1/5 113/1/37
f 113/1/37 119/1/37 120/1/5
f 125/1/38 123/1/38 90/1/5
f 90/1/5 124/1/5 125/1/38
f 126/1/39 122/1/39 123/1/38
f 123/1/38 125/1/38 126/1/39
f 127/1/40 121/1/40 122/1/39
f 122/1/39 126/1/39 127/1/40
f 128/1/13 103/1/13 121/1/40
f 121/1/40 127/1/40 128/1/13
f 127/1/40 131/1/40 20/1/13
f 20/1/13 128/1/13 127/1/40
f 126/1/39 130/1/39 131/1/40
f 131/1/40 127/1/40 126/1/39
f 125/1/38 129/1/38 130/1/39
f 130/1/39 126/1/39 125/1/38
f 124/1/5 33/1/5 129/1/38
f 129/1/38 125/1/38 124/1/5
f 119/1/37 134/1/37 1/1/5
f 1/1/5 120/1/5 119/1/37
f 118/1/36 133/1/36 134/1/37
f 134/1/37 119/1/37 118/1/36
f 117/1/35 132/1/35 133/1/36
f 133/1/36 118/1/36 117/1/35
f 116/1/6 14/1/6 132/1/35
f 132/1/35 117/1/35 116/1/6
f 139/1/41 137/1/41 48/1/6
f 48/1/6 138/1/6 139/1/41
f 140/1/42 136/1/42 137/1/41
f 137/1/41 139/1/41 140/1/42
f 141/1/43 135/1/43 136/1/42
f 136/1/42 140/1/42 141/1/43
f 142/1/17 56/1/17 135/1/43
f 135/1/43 141/1/43 142/1/17
f 147/1/44 145/1/44 34/1/17
f 34/1/17 146/1/17 147/1/44
f 148/1/45 144/1/45 145/1/44
f 145/1/44 147/1/44 148/1/45
f 149/1/46 143/1/46 144/1/45
f 144/1/45 148/1/45 149/1/46
f 150/1/13 47/1/13 143/1/46
f 143/1/46 149/1/46 150/1/13
f 149/1/46 153/1/46 76/1/13
f 76/1/13 150/1/13 149/1/46
f 148/1/45 152/1/45 153/1/46
f 153/1/46 149/1/46 148/1/45
f 147/1/44 151/1/44 152/1/45
f 152/1/45 148/1/45 147/1/44
f 146/1/17 89/1/17 151/1/44
f 151/1/44 147/1/44 146/1/17
f 141/1/43 156/1/43 57/1/17
f 57/1/17 142/1/17 141/1/43
f 140/1/42 155/1/42 156/1/43
f 156/1/43 141/1/43 140/1/42
f 139/1/41 154/1/41 155/1/42
f 155/1/42 140/1/42 139/1/41
f 138/1/6 70/1/6 154/1/41
f 154/1/41 139/1/41 138/1/6
f 134/1/37 133/1/36 159/1/47
f 159/1/47 160/1/48 134/1/37
f 4/1/2 3/1/3 158/1/49
f 158/1/49 162/1/50 4/1/2
f 13/1/7 12/1/8 161/1/51
f 161/1/51 163/1/52 13/1/7
f 160/1/48 2/1/4 1/1/5
f 1/1/5 134/1/37 160/1/48
f 158/1/49 3/1/3 2/1/4
f 2/1/4 160/1/48 158/1/49
f 159/1/47 157/1/53 158/1/49
f 158/1/49 160/1/48 159/1/47
f 162/1/50 11/1/9 5/1/1
f 5/1/1 4/1/2 162/1/50
f 161/1/51 12/1/8 11/1/9
f 11/1/9 162/1/50 161/1/51
f 158/1/49 157/1/53 161/1/51
f 161/1/51 162/1/50 158/1/49
f 163/1/52 132/1/35 14/1/6
f 14/1/6 13/1/7 163/1/52
f 159/1/47 133/1/36 132/1/35
f 132/1/35 163/1/52 159/1/47
f 161/1/51 157/1/53 159/1/47
f 159/1/47 163/1/52 161/1/51
f 131/1/40 130/1/39 166/1/54
f 166/1/54 167/1/55 131/1/40
f 23/1/10 22/1/11 165/1/56
f 165/1/56 169/1/57 23/1/10
f 32/1/59 31/1/3 168/1/58
f 168/1/58 170/1/60 32/1/59
f 167/1/55 21/1/12 20/1/13
f 20/1/13 131/1/40 167/1/55
f 165/1/56 22/1/11 21/1/12
f 21/1/12 167/1/55 165/1/56
f 166/1/54 164/1/61 165/1/56
f 165/1/56 167/1/55 166/1/54
f 169/1/57 30/1/2 24/1/1
f 24/1/1 23/1/10 169/1/57
f 168/1/58 31/1/3 30/1/2
f 30/1/2 169/1/57 168/1/58
f 165/1/56 164/1/61 168/1/58
f 168/1/58 169/1/57 165/1/56
f 170/1/60 129/1/38 33/1/5
f 33/1/5 32/1/59 170/1/60
f 166/1/54 130/1/39 129/1/38
f 129/1/38 170/1/60 166/1/54
f 168/1/58 164/1/61 166/1/54
f 166/1/54 170/1/60 168/1/58
f 145/1/44 144/1/45 173/1/62
f 173/1/62 174/1/63 145/1/44
f 37/1/14 36/1/15 172/1/64
f 172/1/64 176/1/65 37/1/14
f 46/1/68 45/1/67 175/1/66
f 175/1/66 177/1/69 46/1/68
f 174/1/63 35/1/16 34/1/17
f 34/1/17 145/1/44 174/1/63
f 172/1/64 36/1/15 35/1/16
f 35/1/16 174/1/63 172/1/64
f 173/1/62 171/1/70 172/1/64
f 172/1/64 174/1/63 173/1/62
f 176/1/65 44/1/10 38/1/1
f 38/1/1 37/1/14 176/1/65
f 175/1/66 45/1/67 44/1/10
f 44/1/10 176/1/65 175/1/66
f 172/1/64 171/1/70 175/1/66
f 175/1/66 176/1/65 172/1/64
f 177/1/69 143/1/46 47/1/13
f 47/1/13 46/1/68 177/1/69
f 173/1/62 144/1/45 143/1/46
f 143/1/46 177/1/69 173/1/62
f 175/1/66 171/1/70 173/1/62
f 173/1/62 177/1/69 175/1/66
f 137/1/41 136/1/42 180/1/71
f 180/1/71 181/1/72 137/1/41
f 51/1/74 50/1/8 179/1/73
f 179/1/73 183/1/75 51/1/74
f 55/1/16 54/1/77 182/1/76
f 182/1/76 184/1/78 55/1/16
f 181/1/72 49/1/7 48/1/6
f 48/1/6 137/1/41 181/1/72
f 179/1/73 50/1/8 49/1/7
f 49/1/7 181/1/72 179/1/73
f 180/1/71 178/1/79 179/1/73
f 179/1/73 181/1/72 180/1/71
f 183/1/75 53/1/80 52/1/1
f 52/1/1 51/1/74 183/1/75
f 182/1/76 54/1/77 53/1/80
f 53/1/80 183/1/75 182/1/76
f 179/1/73 178/1/79 182/1/76
f 182/1/76 183/1/75 179/1/73
f 184/1/78 135/1/43 56/1/17
f 56/1/17 55/1/16 184/1/78
f 180/1/71 136/1/42 135/1/43
f 135/1/43 184/1/78 180/1/71
f 182/1/76 178/1/79 180/1/71
f 180/1/71 184/1/78 182/1/76
f 156/1/43 155/1/42 187/1/81
f 187/1/81 188/1/82 156/1/43
f 60/1/19 59/1/20 186/1/83
f 186/1/83 190/1/84 60/1/19
f 69/1/22 68/1/23 189/1/85
f 189/1/85 191/1/86 69/1/22
f 188/1/82 58/1/21 57/1/17
f 57/1/17 156/1/43 188/1/82
f 186/1/83 59/1/20 58/1/21
f 58/1/21 188/1/82 186/1/83
f 187/1/81 185/1/87 186/1/83
f 186/1/83 188/1/82 187/1/81
f 190/1/84 67/1/24 61/1/18
f 61/1/18 60/1/19 190/1/84
f 189/1/85 68/1/23 67/1/24
f 67/1/24 190/1/84 189/1/85
f 186/1/83 185/1/87 189/1/85
f 189/1/85 190/1/84 186/1/83
f 191/1/86 154/1/88 70/1/6
f 70/1/6 69/1/22 191/1/86
f 187/1/81 155/1/42 154/1/88
f 154/1/88 191/1/86 187/1/81
f 189/1/85 185/1/87 187/1/81
f 187/1/81 191/1/86 189/1/85
f 153/1/46 152/1/90 194/1/89
f 194/1/89 195/1/91 153/1/46
f 79/1/25 78/1/27 193/1/92
f 193/1/92 197/1/93 79/1/25
f 88/1/29 87/1/20 196/1/94
f 196/1/94 198/1/95 88/1/29
f 195/1/91 77/1/28 76/1/13
f 76/1/13 153/1/46 195/1/91
f 193/1/92 78/1/27 77/1/28
f 77/1/28 195/1/91 193/1/92
f 194/1/89 192/1/96 193/1/92
f 193/1/92 195/1/91 194/1/89
f 197/1/93 86/1/19 80/1/18
f 80/1/18 79/1/25 197/1/93
f 196/1/94 87/1/20 86/1/19
f 86/1/19 197/1/93 196/1/94
f 193/1/92 192/1/96 196/1/94
f 196/1/94 197/1/93 193/1/92
f 198/1/95 151/1/97 89/1/17
f 89/1/17 88/1/29 198/1/95
f 194/1/89 152/1/90 151/1/97
f 151/1/97 198/1/95 194/1/89
f 196/1/94 192/1/96 194/1/89
f 194/1/89 198/1/95 196/1/94
f 123/1/38 122/1/39 201/1/98
f 201/1/98 202/1/99 123/1/38
f 93/1/30 92/1/31 200/1/100
f 200/1/100 204/1/101 93/1/30
f 102/1/28 101/1/27 203/1/102
f 203/1/102 205/1/103 102/1/28
f 202/1/99 91/1/32 90/1/5
f 90/1/5 123/1/38 202/1/99
f 200/1/100 92/1/31 91/1/32
f 91/1/32 202/1/99 200/1/100
f 201/1/98 199/1/104 200/1/100
f 200/1/100 202/1/99 201/1/98
f 204/1/101 100/1/26 94/1/18
f 94/1/18 93/1/30 204/1/101
f 203/1/102 101/1/27 100/1/26
f 100/1/26 204/1/101 203/1/102
f 200/1/100 199/1/104 203/1/102
f 203/1/102 204/1/101 200/1/100
f 205/1/103 121/1/40 103/1/13
f 103/1/13 102/1/28 205/1/103
f 201/1/98 122/1/39 121/1/40
f 121/1/40 205/1/103 201/1/98
f 203/1/102 199/1/104 201/1/98
f 201/1/98 205/1/103 203/1/102
f 115/1/35 114/1/36 208/1/105
f 208/1/105 209/1/106 115/1/35
f 107/1/24 106/1/33 207/1/107
f 207/1/107 211/1/108 107/1/24
f 111/1/32 110/1/110 210/1/109
f 210/1/109 212/1/111 111/1/32
f 209/1/106 105/1/34 104/1/6
f 104/1/6 115/1/35 209/1/106
f 207/1/107 106/1/33 105/1/34
f 105/1/34 209/1/106 207/1/107
f 208/1/105 206/1/112 207/1/107
f 207/1/107 209/1/106 208/1/105
f 211/1/108 109/1/113 108/1/18
f 108/1/18 107/1/24 211/1/108
f 210/1/109 110/1/110 109/1/113
f 109/1/113 211/1/108 210/1/109
f 207/1/107 206/1/112 210/1/109
f 210/1/109 211/1/108 207/1/107
f 212/1/111 113/1/37 112/1/5
f 112/1/5 111/1/32 212/1/111
f 208/1/105 114/1/36 113/1/37
f 113/1/37 212/1/111 208/1/105
f 210/1/109 206/1/112 208/1/105
f 208/1/105 212/1/111 210/1/109
f 213/4/1 6/3/1 5/2/1
f 5/2/1 19/5/1 213/4/1
f 213/4/1 25/7/1 24/6/1
f 24/6/1 6/3/1 213/4/1
f 213/4/1 39/9/1 38/8/1
f 38/8/1 25/7/1 213/4/1
f 213/4/1 19/5/1 52/10/1
f 52/10/1 39/9/1 213/4/1
f 214/4/18 62/3/18 61/2/18
f 61/2/18 75/5/18 214/4/18
f 214/4/18 81/7/18 80/6/18
f 80/6/18 62/3/18 214/4/18
f 214/4/18 95/9/18 94/8/18
f 94/8/18 81/7/18 214/4/18
f 214/4/18 75/5/18 108/10/18
f 108/10/18 95/9/18 214/4/18
f 215/4/5 99/3/5 112/2/5
f 112/2/5 120/5/5 215/4/5
f 215/4/5 124/7/5 90/6/5
f 90/6/5 99/3/5 215/4/5
f 215/4/5 10/9/5 33/8/5
f 33/8/5 124/7/5 215/4/5
f 215/4/5 120/5/5 1/10/5
f 1/10/5 10/9/5 215/4/5
f 216/4/17 43/3/17 56/2/17
f 56/2/17 142/5/17 216/4/17
f 216/4/17 146/7/17 34/6/17
f 34/6/17 43/3/17 216/4/17
f 216/4/17 66/9/17 89/8/17
f 89/8/17 146/7/17 216/4/17
f 216/4/17 142/5/17 57/10/17
f 57/10/17 66/9/17 216/4/17
f 217/4/13 128/3/13 20/2/13
f 20/2/13 29/5/13 217/4/13
f 217/4/13 85/7/13 103/6/13
f 103/6/13 128/3/13 217/4/13
f 217/4/13 150/9/13 76/8/13
f 76/8/13 85/7/13 217/4/13
f 217/4/13 29/5/13 47/10/13
f 47/10/13 150/9/13 217/4/13
f 218/4/6 116/3/6 104/2/6
f 104/2/6 71/5/6 218/4/6
f 218/4/6 15/7/6 14/6/6
f 14/6/6 116/3/6 218/4/6
f 218/4/6 138/9/6 48/8/6
f 48/8/6 15/7/6 218/4/6
f 218/4/6 71/5/6 70/10/6
f 70/10/6 138/9/6 218/4/6

