# WaveFront *.obj file (generated by Cheetah3D)

mtllib text.mtl

g ポリゴン平面
v 0.462910 0.474414 0.000000
v 0.469488 0.468497 0.000000
v 0.475363 0.461882 0.000000
v -0.471491 0.461549 0.000000
v -0.465448 0.468177 0.000000
v -0.458716 0.474106 0.000000
v 0.472229 -0.459202 0.000000
v 0.466218 -0.465917 0.000000
v 0.459515 -0.471941 0.000000
v -0.458412 -0.472594 0.000000
v -0.465156 -0.466599 0.000000
v -0.471211 -0.459910 0.000000
v 0.480573 0.454531 0.000000
v 0.485152 0.446409 0.000000
v -0.451259 0.479374 0.000000
v -0.443043 0.484015 0.000000
v 0.452085 -0.477308 0.000000
v 0.443893 -0.482055 0.000000
v -0.476612 -0.452494 0.000000
v -0.481395 -0.444313 0.000000
v 0.455594 0.479667 0.000000
v -0.476880 0.454187 0.000000
v 0.477584 -0.451762 0.000000
v -0.450945 -0.477931 0.000000
v 0.489138 0.437480 0.000000
v -0.434034 0.488065 0.000000
v 0.434904 -0.486215 0.000000
v -0.485592 -0.435334 0.000000
v 0.438600 0.488327 0.000000
v -0.485832 0.437118 0.000000
v 0.486462 -0.434564 0.000000
v -0.433703 -0.486773 0.000000
v 0.394153 0.499268 0.000000
v 0.418217 0.494765 0.000000
v 0.495475 0.417059 0.000000
v 0.499873 0.392979 0.000000
v -0.413496 0.494535 0.000000
v -0.389366 0.499072 0.000000
v 0.414395 -0.492917 0.000000
v 0.390278 -0.497693 0.000000
v -0.492372 -0.414840 0.000000
v -0.497228 -0.390729 0.000000
v -0.492581 0.416684 0.000000
v 0.493133 -0.414043 0.000000
v -0.413154 -0.493405 0.000000
v -0.499185 0.379097 0.000000
v 0.499614 -0.376422 0.000000
v -0.375521 -0.499826 0.000000
v -0.345830 0.501103 0.000000
v 0.346724 -0.499907 0.000000
v -0.501069 -0.347166 0.000000
v 0.500364 0.349371 0.000000
v 0.000000 0.500000 0.000000
v 0.500000 0.000000 0.000000
v -0.500000 0.000000 0.000000
v 0.000000 -0.500000 0.000000

vt 0.000000 1.000000

vn 0.000000 0.000000 1.000000

usemtl default
f 3/1/1 2/1/1 1/1/1
f 6/1/1 5/1/1 4/1/1
f 9/1/1 8/1/1 7/1/1
f 12/1/1 11/1/1 10/1/1
f 14/1/1 13/1/1 3/1/1
f 16/1/1 15/1/1 6/1/1
f 18/1/1 17/1/1 9/1/1
f 20/1/1 19/1/1 12/1/1
f 3/1/1 1/1/1 21/1/1
f 6/1/1 4/1/1 22/1/1
f 9/1/1 7/1/1 23/1/1
f 12/1/1 10/1/1 24/1/1
f 25/1/1 14/1/1 3/1/1
f 26/1/1 16/1/1 6/1/1
f 27/1/1 18/1/1 9/1/1
f 28/1/1 20/1/1 12/1/1
f 3/1/1 21/1/1 29/1/1
f 6/1/1 22/1/1 30/1/1
f 9/1/1 23/1/1 31/1/1
f 12/1/1 24/1/1 32/1/1
f 25/1/1 3/1/1 29/1/1
f 26/1/1 6/1/1 30/1/1
f 27/1/1 9/1/1 31/1/1
f 28/1/1 12/1/1 32/1/1
f 29/1/1 34/1/1 33/1/1
f 36/1/1 35/1/1 25/1/1
f 38/1/1 37/1/1 26/1/1
f 40/1/1 39/1/1 27/1/1
f 42/1/1 41/1/1 28/1/1
f 26/1/1 30/1/1 43/1/1
f 38/1/1 26/1/1 43/1/1
f 27/1/1 31/1/1 44/1/1
f 40/1/1 27/1/1 44/1/1
f 28/1/1 32/1/1 45/1/1
f 42/1/1 28/1/1 45/1/1
f 25/1/1 29/1/1 33/1/1
f 36/1/1 25/1/1 33/1/1
f 38/1/1 43/1/1 46/1/1
f 40/1/1 44/1/1 47/1/1
f 42/1/1 45/1/1 48/1/1
f 49/1/1 38/1/1 46/1/1
f 50/1/1 40/1/1 47/1/1
f 51/1/1 42/1/1 48/1/1
f 52/1/1 36/1/1 33/1/1
f 52/1/1 33/1/1 53/1/1
f 54/1/1 52/1/1 53/1/1
f 49/1/1 46/1/1 55/1/1
f 53/1/1 49/1/1 55/1/1
f 54/1/1 53/1/1 55/1/1
f 47/1/1 54/1/1 55/1/1
f 50/1/1 47/1/1 55/1/1
f 56/1/1 50/1/1 55/1/1
f 48/1/1 56/1/1 55/1/1
f 48/1/1 55/1/1 51/1/1

g 平面
v -0.475000 0.475000 0.000000
v -0.475000 -0.475000 0.000000
v 0.475000 0.475000 0.000000
v 0.475000 -0.475000 0.000000

vt 0.000000 0.000000
vt 1.000000 0.000000
vt 1.000000 1.000001
vt 0.000000 1.000001

vn 0.000000 0.000000 1.000000

usemtl Material
f 60/4/2 59/3/2 57/2/2
f 57/2/2 58/5/2 60/4/2

usemtl default

